<?xml version="1.0" encoding="utf-8"?>
<!-- Generator: Adobe Illustrator 22.1.0, SVG Export Plug-In . SVG Version: 6.00 Build 0)  -->
<svg version="1.1" xmlns="http://www.w3.org/2000/svg" xmlns:xlink="http://www.w3.org/1999/xlink" x="0px" y="0px"
	 viewBox="0 0 339.6 131.2" style="enable-background:new 0 0 339.6 131.2;" xml:space="preserve">
<style type="text/css">
	.st0{fill:#CD9151;}
	.st1{fill:#DAAD7E;}
	.st2{fill:#FFFFFF;}
	.st3{fill:none;}
</style>
<g id="Calque_1">
</g>
<g id="Mode_Isolation">
	<g>
		<g>
			<g>
				<path d="M171.4,48.1c-2.8-3.1-7.8-4.7-14.7-4.7h-11.8v30.2c0,0.7-0.1,1.1-0.4,1.3c-0.2,0.1-0.6,0.3-1.7,0.3h-2.2v3.7h15.7
					c3.6,0,6.5-0.3,8.7-0.9c2.2-0.6,4.2-1.8,6-3.5c1.6-1.5,2.9-3.5,3.7-5.8c0.9-2.3,1.3-4.7,1.3-7.1
					C176.1,56.1,174.5,51.5,171.4,48.1z M168.1,61.1c0,5.2-0.9,9-2.7,11.2c-0.9,1.1-2.1,1.8-3.4,2.2c-1.5,0.4-3.9,0.6-7.2,0.6
					c-2,0-2.6-0.2-2.7-0.2c-0.1,0-0.3-0.1-0.3-0.9V47h3.6c4.7,0,8,1,9.8,2.8C167.2,51.9,168.1,55.7,168.1,61.1z"/>
				<path d="M187.8,45.2h6.9v8.4c0.6-2.3,1.7-4.4,3.4-6.2c2.2-2.2,4.8-3.3,7.8-3.3c1.7,0,3.1,0.5,4.3,1.6c1.2,1,1.7,2.4,1.7,3.9
					c0,3.2-1.5,4.8-4.5,4.8c-1.2,0-2.2-0.4-3-1.1c-0.8-0.8-1.2-1.7-1.2-2.8c0-1.4,0.6-2.5,1.8-3.2h-0.1c-3.4,0-6.1,2.4-8,7.1
					c-1.5,3.6-2.2,7.4-2.2,11.5V73c0,1,0.5,1.7,1.5,2c0.5,0.2,1.5,0.3,2.8,0.3h0.7v2.8h-16.3v-2.8h0.4c1.5,0,2.5-0.2,3.1-0.7
					c0.6-0.5,0.9-1.4,0.9-2.7V45.2z"/>
				<path d="M243.7,74.8c-2.6,2.3-6,3.4-10.1,3.4c-4.9,0-8.8-1.4-11.8-4.3c-3-2.9-4.5-6.6-4.5-11.3c0-5.6,1.5-10,4.5-13.1
					c3-3.1,7-4.6,12.2-4.6c4.1,0,7.4,1.6,9.9,4.7c2.5,3.2,3.9,7.3,4.2,12.4h-23.5V63c0,3.8,1,6.7,3,8.9c1.9,2,4.3,3,7.2,3
					c2.9,0,5.3-0.8,7.2-2.4L243.7,74.8z M241,59.3c0-2.3-0.2-4.2-0.6-5.8c-1.1-3.8-3.5-5.8-7-5.8c-3.7,0-6.3,1.9-7.8,5.8
					c-0.6,1.6-0.9,3.6-1,5.8H241z"/>
				<path d="M279.5,45.2h6.8v27.4c0,1.3,1.2,2,3.6,2h0.5v3.5h-11v-5.9h-0.2c-2.3,4.7-6.1,7-11.3,7c-7.8,0-11.7-3.6-11.7-10.9V45.2
					h6.7v22.5c0,4.9,2.2,7.3,6.7,7.3c3.3,0,5.8-1.1,7.5-3.4c1.5-2.1,2.3-4.9,2.3-8.5V45.2z"/>
				<path d="M306.7,45.2l11,12.3l11.3-12.3h4.8L319.6,60l9.6,11.6c2,2.4,3.6,3.6,4.8,3.6h1v2.8h-8.8l-11.1-13.4l-11.9,13.4h-4.8
					v-2.8c1.6,0,3-0.6,4-1.7l10.6-11.2l-14.7-17.1H306.7z"/>
			</g>
			<g>
				<path d="M141.4,91.5h1.5v7.7h3.6v1.2h-5V91.5z"/>
				<path d="M151.4,91.5h1.9l2.4,8.9h-1.5l-0.6-2.2h-2.7l-0.6,2.2h-1.5L151.4,91.5z M153.3,97l-1.1-4.4h0l-1.1,4.4H153.3z"/>
				<path d="M158.6,91.5h1.5v8.9h-1.5V91.5z"/>
				<path d="M164.9,97.6v0.2c0,1.1,0.5,1.6,1.5,1.6c0.9,0,1.4-0.6,1.4-1.3c0-0.9-0.5-1.3-1.3-1.6l-1-0.3c-1.3-0.5-1.9-1.2-1.9-2.4
					c0-1.6,1.1-2.5,2.9-2.5c2.4,0,2.6,1.4,2.6,2.3v0.2h-1.5v-0.2c0-0.8-0.4-1.3-1.3-1.3c-0.6,0-1.2,0.3-1.2,1.3
					c0,0.8,0.4,1.1,1.4,1.5l1,0.3c1.3,0.4,1.9,1.1,1.9,2.4c0,1.9-1.2,2.7-3.1,2.7c-2.3,0-2.8-1.5-2.8-2.7v-0.2H164.9z"/>
				<path d="M173.9,97.6v0.2c0,1.1,0.5,1.6,1.5,1.6c0.9,0,1.4-0.6,1.4-1.3c0-0.9-0.5-1.3-1.3-1.6l-1-0.3c-1.3-0.5-1.9-1.2-1.9-2.4
					c0-1.6,1.1-2.5,2.9-2.5c2.4,0,2.6,1.4,2.6,2.3v0.2h-1.5v-0.2c0-0.8-0.4-1.3-1.3-1.3c-0.6,0-1.2,0.3-1.2,1.3
					c0,0.8,0.4,1.1,1.4,1.5l1,0.3c1.3,0.4,1.9,1.1,1.9,2.4c0,1.9-1.2,2.7-3.1,2.7c-2.3,0-2.8-1.5-2.8-2.7v-0.2H173.9z"/>
				<path d="M181.8,91.5h5v1.2h-3.5v2.5h3.3v1.2h-3.3v2.8h3.6v1.2h-5.1V91.5z"/>
				<path d="M189.7,99.2l3.9-6.6H190v-1.2h5.2v1.2l-3.9,6.5h3.9v1.2h-5.5V99.2z"/>
				<path d="M198.3,96.1h3.4v1.3h-3.4V96.1z"/>
				<path d="M204.5,91.5h1.6l1.6,7.1h0l1.7-7.1h1.6l-2.3,8.9h-1.9L204.5,91.5z"/>
				<path d="M213.6,95.9c0-3.2,0.9-4.6,3.1-4.6c2.1,0,3.1,1.4,3.1,4.6s-0.9,4.6-3.1,4.6C214.6,100.5,213.6,99.1,213.6,95.9z
					 M218.3,95.9c0-3-0.7-3.5-1.6-3.5c-0.9,0-1.6,0.5-1.6,3.5c0,3.1,0.7,3.6,1.6,3.6C217.6,99.5,218.3,98.9,218.3,95.9z"/>
				<path d="M224.7,91.5v6.4c0,1.1,0.5,1.6,1.4,1.6c0.9,0,1.3-0.5,1.3-1.6v-6.4h1.5v6.3c0,2.1-1.1,2.8-2.8,2.8
					c-1.8,0-2.8-0.7-2.8-2.8v-6.3H224.7z"/>
				<path d="M233.7,97.6v0.2c0,1.1,0.5,1.6,1.5,1.6c0.9,0,1.4-0.6,1.4-1.3c0-0.9-0.5-1.3-1.3-1.6l-1-0.3c-1.3-0.5-1.9-1.2-1.9-2.4
					c0-1.6,1.1-2.5,2.9-2.5c2.4,0,2.6,1.4,2.6,2.3v0.2h-1.5v-0.2c0-0.8-0.4-1.3-1.3-1.3c-0.6,0-1.2,0.3-1.2,1.3
					c0,0.8,0.4,1.1,1.4,1.5l1,0.3c1.3,0.4,1.9,1.1,1.9,2.4c0,1.9-1.2,2.7-3.1,2.7c-2.3,0-2.8-1.5-2.8-2.7v-0.2H233.7z"/>
				<path d="M248.1,97.6v0.2c0,1.1,0.5,1.6,1.5,1.6c0.9,0,1.4-0.6,1.4-1.3c0-0.9-0.5-1.3-1.3-1.6l-1-0.3c-1.3-0.5-1.9-1.2-1.9-2.4
					c0-1.6,1.1-2.5,2.9-2.5c2.4,0,2.6,1.4,2.6,2.3v0.2h-1.5v-0.2c0-0.8-0.4-1.3-1.3-1.3c-0.6,0-1.2,0.3-1.2,1.3
					c0,0.8,0.4,1.1,1.4,1.5l1,0.3c1.3,0.4,1.9,1.1,1.9,2.4c0,1.9-1.2,2.7-3.1,2.7c-2.3,0-2.8-1.5-2.8-2.7v-0.2H248.1z"/>
				<path d="M257.3,91.5v6.4c0,1.1,0.5,1.6,1.4,1.6c0.9,0,1.3-0.5,1.3-1.6v-6.4h1.5v6.3c0,2.1-1.1,2.8-2.8,2.8
					c-1.8,0-2.8-0.7-2.8-2.8v-6.3H257.3z"/>
				<path d="M265.1,91.5h3.3c1.3,0,2.3,0.6,2.3,2.3c0,1.1-0.5,2-1.5,2.2v0c0.9,0.1,1.4,0.6,1.4,1.8c0,0.6,0,1.3,0.1,1.8
					c0,0.4,0.2,0.6,0.4,0.8h-1.7c-0.1-0.2-0.2-0.4-0.2-0.8c-0.1-0.5,0-1-0.1-1.7c0-1-0.3-1.4-1.3-1.4h-1.2v3.9h-1.5V91.5z
					 M267.8,95.4c0.9,0,1.5-0.5,1.5-1.4c0-0.9-0.4-1.4-1.4-1.4h-1.3v2.9H267.8z"/>
				<path d="M274.4,91.5h2.9c1.8,0,2.5,1.1,2.5,2.6c0,1.6-1,2.6-2.7,2.6h-1.3v3.7h-1.5V91.5z M275.8,95.6h1c0.8,0,1.5-0.4,1.5-1.5
					c0-1-0.4-1.5-1.6-1.5h-0.9V95.6z"/>
				<path d="M283.1,91.5h3.3c1.3,0,2.3,0.6,2.3,2.3c0,1.1-0.5,2-1.5,2.2v0c0.9,0.1,1.4,0.6,1.4,1.8c0,0.6,0,1.3,0.1,1.8
					c0,0.4,0.2,0.6,0.4,0.8h-1.7c-0.1-0.2-0.2-0.4-0.2-0.8c-0.1-0.5,0-1-0.1-1.7c0-1-0.3-1.4-1.3-1.4h-1.2v3.9h-1.5V91.5z
					 M285.7,95.4c0.9,0,1.5-0.5,1.5-1.4c0-0.9-0.4-1.4-1.4-1.4h-1.3v2.9H285.7z"/>
				<path d="M292.3,91.5h5v1.2h-3.5v2.5h3.3v1.2h-3.3v2.8h3.6v1.2h-5.1V91.5z"/>
				<path d="M300.8,91.5h1.8l2.7,6.6h0v-6.6h1.4v8.9h-1.8l-2.7-6.8h0v6.8h-1.4V91.5z"/>
				<path d="M310.5,91.5h2.6c2.9,0,3.3,1.8,3.3,4.4s-0.4,4.4-3.3,4.4h-2.6V91.5z M312,99.3h1.2c1.2,0,1.7-0.8,1.7-3.4
					c0-2.5-0.4-3.4-1.7-3.4H312V99.3z"/>
				<path d="M320,91.5h3.3c1.3,0,2.3,0.6,2.3,2.3c0,1.1-0.5,2-1.5,2.2v0c0.9,0.1,1.4,0.6,1.4,1.8c0,0.6,0,1.3,0.1,1.8
					c0,0.4,0.2,0.6,0.4,0.8h-1.7c-0.1-0.2-0.2-0.4-0.2-0.8c-0.1-0.5,0-1-0.1-1.7c0-1-0.3-1.4-1.3-1.4h-1.2v3.9H320V91.5z
					 M322.6,95.4c0.9,0,1.5-0.5,1.5-1.4c0-0.9-0.4-1.4-1.4-1.4h-1.3v2.9H322.6z"/>
				<path d="M329.2,91.5h5v1.2h-3.5v2.5h3.3v1.2h-3.3v2.8h3.6v1.2h-5.1V91.5z"/>
			</g>
		</g>
		<g>
			<g>
				<g>
					<rect x="48.7" y="67.8" class="st0" width="7.7" height="8.7"/>
					<rect x="71.8" y="76.5" class="st0" width="7.7" height="8.7"/>
					<rect x="56.4" y="76.5" class="st0" width="7.7" height="8.7"/>
					<rect x="71.8" y="59.1" class="st0" width="7.7" height="8.7"/>
					<rect x="64.1" y="67.8" class="st0" width="7.7" height="8.7"/>
					<rect x="56.4" y="59.1" class="st0" width="7.7" height="8.7"/>
					<rect x="64.1" y="50.5" class="st0" width="7.7" height="8.7"/>
					<rect x="48.7" y="50.5" class="st0" width="7.7" height="8.7"/>
				</g>
				<g>
					<rect x="64.1" y="85.2" class="st0" width="7.7" height="8.7"/>
					<rect x="48.7" y="85.2" class="st0" width="7.7" height="8.7"/>
					<path class="st0" d="M87.2,39.9H40.9h-1.9v1.9v46.8c0,4,3.2,7.2,7.2,7.2h13.8l3.9,3.9l3.9-3.9h13.8c1.8,0,3.5-0.7,4.8-1.9
						l0.6-0.6c1.1-1.3,1.9-2.9,1.9-4.8V41.8v-1.9H87.2z M87.2,50.5h-7.7v8.7h7.7v8.7h-7.7v8.7h7.7v8.7h-7.7v8.7l-15.4,0H46.3
						c-3,0-5.4-2.4-5.4-5.4v-3.3h7.7v-8.7h-7.7v-8.7h7.7v-8.7h-7.7v-8.7h7.7v-8.7h7.7v8.7h7.7v-8.7h7.7v8.7h7.7v-8.7h7.7V50.5z"/>
				</g>
			</g>
			<g>
				<g>
					<path class="st1" d="M109.7,58.2c0,0-0.1-0.1-0.2-0.3c-0.2-0.3-0.3-0.8-0.4-1.2c-0.2-0.2-0.2-0.4-0.2-0.9
						c0-0.7-0.1-1.5-0.7-2.1c-0.3-0.3-0.7-0.5-1.1-0.5c-0.4,0-0.8,0.1-1,0.4c0,0,0,0,0,0.1c-0.1-0.1-0.2-0.4-0.4-0.8
						c0,0,0-0.1,0-0.1c-0.2-0.6-0.4-1.2-1-1.7c-0.5-0.4-1-0.7-1.6-0.7c-0.5,0-0.9,0.2-1.1,0.6c0,0,0,0,0,0.1c0,0,0,0,0,0
						c-0.1,0.1-0.1,0.2-0.1,0.2c0,0-0.1,0-0.4-0.3l0,0c-0.3-0.3-0.7-0.6-1.1-0.9c-0.5-0.3-1-0.5-1.4-0.4c-0.4,0-0.8,0.2-0.9,0.6
						c-0.1,0.2-0.1,0.4-0.1,0.6c0,0.1,0,0.2,0,0.2c0,0,0,0.1-0.3,0c-0.5,0-0.8,0-1.1,0.1c-0.4,0.1-0.6,0.3-0.8,0.6
						c-0.1,0.3-0.1,0.6,0,1c0.1,0.3,0.3,0.5,0.6,0.9c0.2,0.2,0.2,0.3,0.2,0.3c0,0-0.1,0.1-0.2,0.2l0,0c-0.2,0.1-0.3,0.3-0.4,0.4
						c-0.2,0.3-0.1,0.7,0.1,1.1c0.2,0.4,0.7,0.7,1.2,0.9c0.4,0.2,0.9,0.3,1.3,0.4l0,0c0.2,0.1,0.5,0.2,0.5,0.2c0,0,0,0.1,0,0.2
						c0,0,0,0,0,0c0,0,0,0,0,0.1c-0.2,0.4-0.2,0.9,0.1,1.2c0.3,0.4,0.9,0.7,1.5,0.8c0.8,0.2,1.4,0,2-0.2c0,0,0.1,0,0.1,0
						c0.5-0.1,0.7-0.2,0.9-0.2c0,0,0,0,0,0.1c-0.1,0.4,0,0.8,0.2,1.1c0.3,0.3,0.7,0.5,1.1,0.6c0.9,0.1,1.5-0.2,2.1-0.6
						c0.6-0.4,0.6-0.4,1.3-0.3c0.5,0.1,1,0.1,1.3,0c0.1-0.4,0.1-0.8,0.3-1.2C109.6,58.5,109.7,58.3,109.7,58.2z"/>
					<path class="st1" d="M98.8,96.6c0,0,0-0.3-0.1-0.5c-0.1-1-0.2-2.4,0.8-3.7c0.5-0.7,1.2-1.2,2-1.4c0.4-0.1,0.7-0.1,1.1-0.1
						c0.2-0.9,0.4-1.9,1.2-2.9c0.3-0.4,0.6-0.7,1-0.9c-0.3-0.3-0.6-0.5-1-0.4c0,0-0.1,0-0.1,0c0,0,0,0,0,0c-0.2,0-0.2,0-0.2,0
						c0,0,0-0.4,0-0.6l0,0c0.1-0.5,0.1-1.1,0.2-1.6c0-0.7-0.1-1.3-0.4-1.7c-0.3-0.4-0.7-0.6-1.1-0.6c-0.2,0-0.4,0.1-0.6,0.2l0,0
						c-0.1,0.1-0.2,0.1-0.3,0.1c0,0-0.1,0-0.2-0.3c-0.3-0.5-0.5-0.8-0.7-1.1c-0.3-0.3-0.6-0.4-1-0.4c-0.4,0-0.7,0.2-0.9,0.6
						c-0.2,0.3-0.3,0.6-0.5,1.2c-0.1,0.3-0.2,0.4-0.2,0.4c-0.1,0-0.1,0-0.3-0.1c-0.2-0.1-0.4-0.1-0.6-0.1c-0.4,0-0.8,0.3-1,0.8
						c-0.2,0.5-0.3,1.1-0.1,1.7c0.1,0.5,0.3,1.1,0.4,1.6l0,0c0.1,0.5,0.1,0.6,0.1,0.6c0,0,0,0.1-0.2,0.1c0,0,0,0,0,0c0,0,0,0-0.1,0
						c-0.5,0-0.9,0.4-1.1,0.9c-0.2,0.6-0.2,1.3,0.1,2c0.3,0.9,0.9,1.4,1.4,1.9c0,0,0.1,0,0.1,0.1c0.4,0.4,0.6,0.6,0.7,0.8
						c0,0,0,0-0.1,0c-0.4,0.1-0.7,0.4-0.9,0.9c-0.1,0.4-0.1,1,0.1,1.4c0.4,0.9,1.1,1.4,1.8,1.7c0.2,0.1,0.3,0.1,0.4,0.2
						c0.1-0.1,0.1-0.2,0.2-0.3C98.6,96.9,98.7,96.7,98.8,96.6z"/>
					<path class="st1" d="M117.9,90.4c0.5,0.7,0.6,1.6,0.2,2.5c-0.3,0.8-1,1.5-1.9,2c-0.5,0.3-1,0.5-1.4,0.7
						c0.2,0.7,0.1,1.4-0.2,2.1c-0.5,0.8-1.3,1.6-2.4,2c-1.3,0.5-2.3,0.4-3.2,0.3c-0.1,0.3-0.2,0.7-0.4,1c-0.4,0.7-1.1,1.2-1.9,1.5
						c-0.9,0.3-1.8,0.3-2.8,0.1c0,0,0,0,0,0l0.3,0.3c0.5,0.3,1.5,0.2,2.7-0.3c0.9-0.3,0.9-0.3,1.7-0.1c0.8,0.2,1.7,0.3,2.8-0.1
						c0.6-0.2,1.1-0.6,1.4-0.9c0.3-0.4,0.4-0.8,0.3-1.1c0,0,0,0,0-0.1c0.2-0.1,0.6-0.1,1.2-0.1c0,0,0.1,0,0.1,0
						c0.8,0,1.6-0.1,2.7-0.5c0.8-0.3,1.5-0.8,1.9-1.3c0.4-0.5,0.4-0.9,0.1-1.2c0,0,0,0-0.1-0.1c0,0,0,0,0,0
						c-0.1-0.1-0.1-0.2-0.1-0.2c0,0,0.2-0.1,0.4-0.2c0.1,0,0.2-0.1,0.2-0.1l0,0c0.5-0.2,1.2-0.5,1.8-0.8c0.7-0.4,1.2-0.8,1.5-1.3
						c0.3-0.4,0.3-0.8,0-1.1c-0.1-0.1-0.3-0.2-0.5-0.3l0,0c-0.1,0-0.2-0.1-0.2-0.1c0,0,0,0,0.2-0.3c0.4-0.5,0.6-0.8,0.7-1.1
						c0.2-0.4,0.1-0.7-0.1-0.9c-0.2-0.2-0.6-0.3-1.1-0.3c-0.4,0-0.8,0.1-1.5,0.3c-0.4,0.1-0.4,0.1-0.5,0.1c0,0-0.1-0.1-0.1-0.2
						c0-0.2-0.1-0.4-0.2-0.5c-0.3-0.3-0.7-0.4-1.3-0.2c-0.3,0.1-0.7,0.2-1,0.4c0,0,0,0,0,0.1C117.7,90.1,117.8,90.2,117.9,90.4z"/>
					<path class="st0" d="M94.4,109.5c-0.3,0.1-0.6,0.2-0.8,0.3c0.1,0.5-0.1,1-0.4,1.5c-0.4,0.7-1.2,1.1-2,1.4
						c-0.4,0.1-0.7,0.1-1.1,0.1c-0.4,0-0.8-0.1-1.1-0.1c-0.1,0.2-0.2,0.4-0.3,0.5c-0.3,0.4-0.8,0.7-1.4,0.9c0.4,0.3,0.8,0.5,1.3,0.6
						c0.5,0.1,1.1,0.1,1.5,0c0.4-0.2,0.7-0.5,0.7-0.9c0,0,0-0.1,0-0.1c0.2,0,0.5,0.2,1,0.6c0,0,0.1,0,0.1,0.1
						c0.6,0.4,1.3,0.9,2.3,1.1c0.8,0.2,1.5,0.2,2.1-0.1c0.5-0.2,0.7-0.6,0.6-1.1c0,0,0,0,0-0.1c0,0,0,0,0,0c0-0.2,0-0.2,0-0.2
						c0,0,0.1,0,0.6,0.1l0,0c0.5,0.1,1.2,0.2,1.7,0.3c0.7,0.1,1.3,0,1.7-0.3c0.4-0.2,0.6-0.6,0.5-1c0-0.2-0.1-0.4-0.3-0.6
						c-0.1-0.1-0.1-0.2-0.1-0.2c0,0,0-0.1,0.3-0.2c0.5-0.2,0.8-0.4,1.1-0.6c0.3-0.3,0.4-0.5,0.4-0.9c-0.1-0.3-0.3-0.6-0.7-0.9
						c-0.3-0.2-0.7-0.4-1.3-0.6c-0.4-0.1-0.4-0.2-0.4-0.2c0-0.1,0-0.1,0-0.2l0,0c0.1-0.2,0.1-0.4,0.1-0.6c-0.1-0.4-0.4-0.7-0.9-1
						c-0.5-0.2-1.2-0.3-1.8-0.3c-0.5,0.1-1.1,0.2-1.6,0.3c0,0.3-0.1,0.5-0.2,0.8C95.7,108.7,95.1,109.2,94.4,109.5z"/>
					<path class="st1" d="M74.7,112.8C74.7,112.8,74.6,112.8,74.7,112.8c0-0.1,0.2-0.2,0.5-0.3c0,0,0,0,0.1,0
						c0.4-0.2,0.8-0.3,1.1-0.8c0.3-0.3,0.4-0.7,0.4-1.1c0-0.3-0.2-0.6-0.5-0.7c0,0,0,0,0,0c0,0,0,0,0,0c-0.1,0-0.1-0.1-0.1-0.1
						c0,0,0-0.1,0.2-0.3l0,0c0.2-0.2,0.4-0.5,0.5-0.8c0.2-0.3,0.3-0.7,0.2-1c0-0.3-0.2-0.5-0.4-0.6c-0.1,0-0.2-0.1-0.4-0.1
						c-0.1,0-0.1,0-0.2,0c0,0,0,0,0-0.2c0-0.3,0-0.6-0.1-0.7c-0.1-0.2-0.2-0.4-0.4-0.5c-0.2-0.1-0.4-0.1-0.6,0
						c-0.2,0.1-0.4,0.2-0.6,0.5c-0.2,0.1-0.2,0.1-0.2,0.1c0,0-0.1-0.1-0.1-0.1l0,0c-0.1-0.1-0.2-0.2-0.3-0.2
						c-0.2-0.1-0.5-0.1-0.7,0.1c-0.2,0.2-0.4,0.5-0.5,0.9c-0.1,0.3-0.1,0.7-0.2,0.9l0,0c0,0.1-0.1,0.3-0.1,0.3c0,0,0,0-0.1,0
						c0,0,0,0,0,0c0,0,0,0,0,0c-0.3-0.1-0.6-0.1-0.8,0.2c-0.3,0.2-0.5,0.6-0.5,1.1c-0.1,0.6,0.1,1,0.2,1.3c0,0,0,0,0,0.1
						c0.1,0.3,0.2,0.5,0.2,0.6c0,0,0,0,0,0c-0.2-0.1-0.5,0-0.7,0.2c-0.2,0.2-0.3,0.5-0.4,0.8c-0.1,0.6,0.2,1,0.5,1.4
						c0.3,0.3,0.3,0.4,0.3,0.8c1.5-0.2,3-0.5,4.4-0.9C75,113.2,74.9,113,74.7,112.8z"/>
					<path class="st0" d="M109.8,78.6c0.1-0.3,0.2-0.7,0.2-1c-0.1-0.4-0.1-0.9-0.1-1.4c-0.2-0.4-0.5-0.7-0.9-0.8
						c-0.4-0.2-0.8-0.1-1.1,0.1c0,0,0,0-0.1,0c-0.1-0.1-0.1-0.4-0.1-0.9c0,0,0-0.1,0-0.1c0-0.6,0-1.2-0.4-1.9
						c-0.3-0.6-0.8-1-1.3-1.2c-0.5-0.2-0.9-0.1-1.2,0.2c0,0,0,0,0,0c0,0,0,0,0,0c-0.1,0.1-0.2,0.1-0.2,0.1c0,0-0.1,0-0.3-0.4l0,0
						c-0.2-0.4-0.5-0.8-0.8-1.2c-0.3-0.4-0.8-0.8-1.2-0.9c-0.4-0.1-0.8,0-1.1,0.2c-0.1,0.1-0.2,0.3-0.3,0.5c0,0.1-0.1,0.2-0.1,0.2
						c0,0,0,0-0.3-0.1c-0.5-0.2-0.8-0.3-1.1-0.3c-0.4,0-0.7,0.1-0.9,0.3s-0.3,0.5-0.3,0.9c0,0.3,0.1,0.6,0.3,1.1
						c0.1,0.3,0.1,0.3,0.1,0.3c0,0-0.1,0.1-0.2,0.1l0,0c-0.2,0.1-0.4,0.2-0.5,0.3c-0.3,0.3-0.4,0.6-0.3,1.1c0.1,0.4,0.4,0.9,0.9,1.2
						c0.4,0.3,0.8,0.6,1.1,0.8l0,0c0.2,0.1,0.4,0.3,0.4,0.3c0,0,0,0.1-0.1,0.2c0,0,0,0,0,0c0,0,0,0-0.1,0.1
						c-0.3,0.3-0.4,0.7-0.2,1.2c0.2,0.5,0.6,1,1.2,1.3c0.7,0.4,1.3,0.4,1.9,0.4c0,0,0.1,0,0.1,0c0.5,0,0.8,0.1,0.9,0.1
						c0,0,0,0,0,0.1c-0.2,0.3-0.2,0.7-0.1,1.1c0.2,0.4,0.5,0.7,0.8,0.9c0.8,0.4,1.5,0.3,2.2,0.1c0.6-0.2,0.7-0.2,1.3,0.1
						c0.3,0.1,0.5,0.2,0.8,0.3c0.1-0.4,0.3-0.8,0.4-1.2C109.4,80.3,109.6,79.4,109.8,78.6z"/>
					<path class="st1" d="M113.2,45.8c0.1,0,0.1,0,0.2-0.1l0.9-0.7c0.8-0.6,1.6-2.7,1-3.5c-0.6-0.8-2.8-0.5-3.6,0.1l-0.9,0.7
						c0,0,0,0.1-0.1,0.1C111.6,42.9,113,44.8,113.2,45.8z"/>
					<path class="st0" d="M113.1,46.4c0.1-0.1,0.1-0.3,0.1-0.6c-0.2-1-1.6-2.9-2.5-3.4c-0.2-0.1-0.5-0.1-0.6,0
						c-1.1,0.8-1.3,2.4-0.5,3.5C110.4,47,112,47.2,113.1,46.4z"/>
					<path class="st1" d="M105.1,104.4l-1.1-0.3c0,0-0.1,0-0.1,0c0.2,1-0.4,3.3-1.1,4c0.1,0,0.1,0.1,0.2,0.1l1.1,0.3
						c1,0.3,3.1-0.4,3.4-1.4C107.6,106.1,106,104.6,105.1,104.4z"/>
					<path class="st0" d="M103.9,104.1c-0.1-0.3-0.2-0.5-0.4-0.5c-1.3-0.3-2.7,0.4-3.1,1.8c-0.3,1.3,0.4,2.7,1.8,3.1
						c0.2,0,0.3-0.1,0.5-0.3C103.4,107.3,104.1,105.1,103.9,104.1z"/>
					<path class="st1" d="M106,68.4l1.1,0.2c0,0,0.1,0,0.1,0c-0.3-1,0.2-3.3,0.9-4.2c-0.1,0-0.1-0.1-0.2-0.1l-1.1-0.2
						c-1-0.2-3.1,0.6-3.3,1.7C103.3,66.8,105,68.2,106,68.4z"/>
					<path class="st0" d="M107.2,68.6c0.1,0.3,0.2,0.5,0.4,0.5c1.4,0.3,2.7-0.6,3-2c0.3-1.4-0.6-2.7-2-3c-0.2,0-0.3,0.1-0.5,0.3
						C107.5,65.3,107,67.6,107.2,68.6z"/>
					<path class="st0" d="M79.8,113.9c0.4-0.2,0.9-0.3,1.3-0.5c0,0,0,0,0,0C80.7,113.6,80.2,113.8,79.8,113.9z"/>
					<path class="st0" d="M110.7,52.7C110.7,52.7,110.7,52.7,110.7,52.7c-1-3.1-2.4-6.2-4-9.1c0,0,0,0,0,0.1
						C108.3,46.5,109.7,49.6,110.7,52.7z"/>
					<polygon class="st0" points="94.8,30.2 94.8,30.2 94.8,30.2 					"/>
					<path class="st0" d="M111,72.8c-0.1,0.5-0.1,1-0.2,1.5c0,0,0,0,0,0C110.9,73.7,110.9,73.2,111,72.8z"/>
					<path class="st0" d="M111.2,70.9c0.1-1.3,0.2-2.7,0.2-4C111.4,68.3,111.3,69.6,111.2,70.9z"/>
					<path class="st0" d="M94.8,30.2c0.1-0.1,0.3-0.2,0.4-0.3C95,30,94.9,30,94.8,30.2z"/>
					<path class="st0" d="M112.8,73c0.1-0.7,0.2-1.4,0.2-2.1C112.9,71.6,112.8,72.3,112.8,73C112.7,73,112.8,73,112.8,73z"/>
					<path class="st0" d="M109.3,85.7C109.3,85.7,109.3,85.7,109.3,85.7c0.4-0.9,0.7-1.8,1-2.7l0,0C110,83.9,109.7,84.8,109.3,85.7z
						"/>
					<path class="st0" d="M107.1,86.3c0.2-0.5,0.5-1,0.7-1.5C107.6,85.3,107.3,85.8,107.1,86.3z"/>
					<path class="st0" d="M109.1,81.1c-0.1,0.4-0.3,0.8-0.4,1.2c0,0.1,0,0.1-0.1,0.2C108.8,82,109,81.5,109.1,81.1z"/>
					<path class="st0" d="M110.1,77.7C110.1,77.7,110.1,77.6,110.1,77.7c-0.1,0.3-0.2,0.6-0.3,1C109.9,78.3,110,78,110.1,77.7z"/>
					<path class="st0" d="M66.3,116.7c0.2,0,0.3,0,0.5,0c-0.2,0-0.3-0.1-0.4-0.1C66.3,116.6,66.3,116.6,66.3,116.7z"/>
					<path class="st0" d="M110.6,52.8c0,0,0.1,0,0.2-0.1c-1-3.1-2.4-6.2-4-9.1c0,0,0,0,0-0.1c0.2-0.5,0.2-1.2,0-2
						c-0.2-0.8-0.2-0.8,0.2-1.5c0.4-0.7,0.8-1.6,0.5-2.6c-0.1-0.5-0.4-1-0.8-1.2c-0.4-0.3-0.9-0.4-1.3-0.2c0,0-0.1,0-0.1,0
						c0-0.2,0-0.5,0.1-1.1c0,0,0-0.1,0-0.1c0.2-0.7,0.3-1.5,0-2.4c-0.2-0.7-0.6-1.4-1.2-1.7c-0.5-0.3-1-0.3-1.5,0c0,0,0,0-0.1,0
						c0,0,0,0,0,0c-0.2,0.1-0.2,0.1-0.2,0.1c0,0-0.1-0.1-0.3-0.5l0,0c-0.2-0.5-0.4-1.1-0.6-1.6c-0.3-0.6-0.7-1.1-1.2-1.3
						c-0.5-0.2-0.9-0.2-1.3,0c-0.2,0.1-0.3,0.3-0.5,0.5c-0.1,0.1-0.1,0.2-0.2,0.2c0,0-0.1,0-0.4-0.2c-0.5-0.3-0.9-0.5-1.2-0.6
						c-0.4-0.1-0.8-0.1-1.1,0.1c-0.3,0.2-0.5,0.5-0.6,1c-0.1,0.3,0,0.7,0,1.3c0,0.1,0,0.2,0,0.3h0c-0.2,0-0.3,0.1-0.4,0.3
						c0,0,0,0,0,0h0c-0.2,0-0.4,0.1-0.6,0.2c-0.4,0.2-0.6,0.7-0.6,1.2c0,0.5,0.2,1.1,0.7,1.7c0.4,0.4,0.8,0.9,1.1,1.2l0,0
						c0.2,0.2,0.4,0.5,0.4,0.5c0,0,0,0.1-0.2,0.2c0,0,0,0,0,0c0,0-0.1,0-0.1,0c-0.5,0.3-0.7,0.8-0.6,1.4c0.1,0.6,0.4,1.3,1,1.8
						c0.7,0.7,1.5,0.9,2.2,1c0,0,0.1,0,0.1,0c0.6,0.1,0.9,0.3,1,0.4c0,0,0,0-0.1,0.1c-0.3,0.3-0.5,0.8-0.4,1.3
						c0.1,0.5,0.3,0.9,0.7,1.3c0.8,0.7,1.7,0.7,2.5,0.7c0.8-0.1,0.9-0.1,1.5,0.5c0.6,0.5,1.1,0.8,1.6,0.9c1.7,3.1,3.2,6.4,4.2,9.8
						C109.6,53.6,110,53.1,110.6,52.8z"/>
					<path class="st0" d="M113.2,66.3C113.2,66.3,113.2,66.3,113.2,66.3c0-1.2-0.1-2.3-0.2-3.5c-0.2,0.1-0.5,0.2-0.7,0.2
						c0,0,0,0,0,0c-0.4,0.1-0.7,0-1.1-0.1c0.1,1.3,0.2,2.6,0.2,3.9c0,1.3-0.1,2.7-0.2,4c-0.1,0.6-0.1,1.2-0.2,1.8
						c-0.1,0.5-0.1,1-0.2,1.4c0.4-0.4,0.8-0.8,1.3-1c0.2-0.1,0.5-0.1,0.7-0.2c0.1-0.7,0.2-1.4,0.3-2.1c0-0.1,0-0.3,0-0.4
						c0.1-1.2,0.1-2.4,0.1-3.6L113.2,66.3z"/>
					<path class="st0" d="M117.1,90.7c-0.1-0.2-0.3-0.3-0.6-0.5c-0.1-0.1-0.2-0.1-0.3-0.2c0,0-0.1-0.1,0.2-0.4
						c0.3-0.6,0.5-1,0.6-1.4c0.1-0.5,0.1-0.9-0.2-1.2s-0.6-0.5-1.1-0.5c-0.4,0-0.8,0-1.5,0.2c-0.4,0.1-0.4,0.1-0.5,0
						c0-0.1-0.1-0.2-0.1-0.3l0,0c-0.1-0.3-0.1-0.5-0.3-0.7c-0.3-0.4-0.8-0.6-1.4-0.5c-0.6,0.1-1.2,0.4-1.8,0.9
						c-0.5,0.4-0.9,1-1.3,1.4l0,0c-0.2,0.2-0.5,0.5-0.5,0.5c0,0-0.1,0-0.1-0.1c0.3-0.7,0.7-1.5,1-2.2c0.4-0.9,0.7-1.8,1-2.7
						l-0.5-0.5l-0.1-0.1c-0.5-0.9-0.4-2.1,0.4-3.5c0.1-0.2,0.2-0.3,0.2-0.4c0,0-0.1-0.1-0.1-0.3c0-0.1-0.1-0.3-0.1-0.4
						c-0.1,0.3-0.2,0.6-0.3,1c-0.2,0.8-0.4,1.6-0.7,2.4c-0.1,0.4-0.3,0.9-0.5,1.3c-0.3,0.8-0.6,1.6-0.9,2.4c-0.2,0.5-0.4,1-0.7,1.5
						c0,0,0,0,0,0c-0.1,0.3-0.3,0.6-0.4,0.8c0,0-0.1,0-0.1,0c-0.7,0.1-1.4,0.6-1.9,1.3c-0.7,0.9-0.8,1.7-1,2.5c0,0,0,0.1,0,0.1
						c-0.1,0.6-0.2,1-0.3,1.1c0,0,0,0-0.1-0.1c-0.4-0.3-0.9-0.5-1.4-0.3c-0.5,0.1-1,0.5-1.4,1c-0.7,0.9-0.7,2-0.6,2.9
						c0.1,0.9,0.1,0.9-0.4,1.7c-0.5,0.7-0.8,1.3-0.9,1.8c-0.4,0.4-0.7,0.8-1.1,1.2c0,0,0,0,0,0c-0.7,0.7-1.4,1.4-2.2,2.1
						c0.4,0.2,0.6,0.5,0.8,0.7c0.1,0.2,0.2,0.5,0.3,0.8c0.3-0.2,0.5-0.5,0.8-0.7c0.1,0,0.2-0.1,0.2-0.1c0.4-0.4,0.7-0.8,1.1-1.2
						c0.3-0.3,0.7-0.7,1-1c0.6,0.3,1.4,0.2,2.4-0.2c0.9-0.3,0.9-0.3,1.7,0.1c0.8,0.4,1.8,0.7,2.9,0.3c0.6-0.2,1-0.6,1.3-1
						c0.3-0.5,0.3-1,0.1-1.5c0,0,0-0.1,0-0.1c0.2-0.1,0.6-0.1,1.2,0c0,0,0.1,0,0.1,0c0.8,0.1,1.6,0.2,2.7-0.2
						c0.8-0.3,1.5-0.8,1.8-1.5c0.3-0.6,0.3-1.2-0.1-1.7c0,0,0,0-0.1-0.1c0,0,0,0,0,0c-0.1-0.2-0.1-0.3-0.1-0.3c0,0,0.1-0.1,0.6-0.4
						l0,0c0.5-0.2,1.2-0.5,1.7-0.8c0.7-0.4,1.2-0.9,1.4-1.5C117.5,91.6,117.4,91.1,117.1,90.7z"/>
					<path class="st0" d="M94.7,106.1c-0.1-0.1-0.2-0.1-0.2-0.2c0,0,0-0.1,0.1-0.3c0.3-0.4,0.4-0.7,0.5-0.9c0.1-0.4,0.1-0.7-0.1-0.9
						c-0.2-0.3-0.4-0.4-0.8-0.5c-0.3,0-0.6,0-1.1,0c-0.3,0-0.3,0-0.3,0c0,0,0-0.1-0.1-0.2l0,0c0-0.2-0.1-0.4-0.2-0.5
						c-0.2-0.3-0.5-0.5-1-0.5c-0.4,0-0.9,0.2-1.4,0.5c-0.4,0.3-0.7,0.6-1,0.9l0,0c-0.1,0.1-0.4,0.3-0.4,0.3c0,0-0.1,0-0.1-0.1
						c0,0,0,0,0,0c0,0,0,0,0-0.1c-0.2-0.4-0.6-0.6-1.1-0.5c-0.5,0-1.1,0.3-1.5,0.8c-0.6,0.6-0.7,1.2-0.9,1.8c0,0,0,0.1,0,0.1
						c-0.1,0.4-0.2,0.7-0.3,0.8c0,0,0,0,0,0c-0.2-0.3-0.6-0.4-1-0.4c-0.4,0.1-0.8,0.3-1.1,0.6c-0.6,0.6-0.6,1.4-0.6,2.1
						c0,0.7,0,0.7-0.4,1.2c-0.5,0.6-0.8,1.2-0.8,1.6c-0.3,0.1-0.7,0.3-1.1,0.4c0,0,0,0,0,0c-1.6,0.6-3.3,1.1-5,1.6
						c-1.5,0.4-2.9,0.7-4.4,0.9c-0.5,0.1-0.9,0.2-1.4,0.2c-1,0.1-1.9,0.2-2.9,0.3c-0.4-0.8-1.2-1.4-2.1-1.4h-0.4
						c-1.3,0-2.3,1-2.3,2.3v0.3c0,0.2,0.1,0.4,0.1,0.6l-8.3,10.7c-0.3,0.4-0.2,1,0.2,1.3c0.2,0.1,0.4,0.2,0.6,0.2
						c0.3,0,0.5-0.1,0.7-0.3l8.1-10.4c0.3,0.1,0.6,0.2,1,0.2h0.4c1.1,0,1.9-0.7,2.2-1.7c0-0.1,0-0.1,0-0.2c0.1,0.1,0.3,0.1,0.4,0.1
						c0,0,0,0,0,0c2,0,3.4,0.1,4.8,0.5c0.4,0.1,0.8,0.2,1.2,0.3c0.1,0.4,0.4,0.8,0.8,1.2c0.5,0.4,0.5,0.5,0.5,1.1
						c0,0.7,0.2,1.4,0.8,2c0.3,0.3,0.7,0.4,1.1,0.4c0.4,0,0.7-0.2,0.9-0.5c0,0,0,0,0-0.1c0.1,0.1,0.2,0.3,0.4,0.8c0,0,0,0.1,0,0.1
						c0.2,0.6,0.4,1.1,1,1.6c0.5,0.4,1,0.6,1.5,0.5c0.5,0,0.8-0.3,1-0.7c0,0,0,0,0-0.1c0,0,0,0,0,0c0.1-0.2,0.1-0.2,0.1-0.2
						c0,0,0.1,0,0.4,0.2l0,0c0.3,0.2,0.7,0.5,1.1,0.7c0.5,0.3,0.9,0.4,1.4,0.3c0.4-0.1,0.7-0.3,0.9-0.7c0.1-0.2,0.1-0.4,0.1-0.6
						c0-0.1,0-0.2,0-0.2c0,0,0-0.1,0.3-0.1c0.5,0,0.8-0.1,1-0.2c0.3-0.1,0.6-0.3,0.7-0.6c0.1-0.3,0.1-0.6,0-1
						c-0.1-0.2-0.3-0.5-0.6-0.9c-0.2-0.2-0.2-0.3-0.2-0.3c0,0,0.1-0.1,0.2-0.2l0,0c0.1-0.1,0.3-0.3,0.3-0.5c0.2-0.4,0.1-0.7-0.1-1.1
						c-0.2-0.4-0.7-0.6-1.2-0.8c-0.4-0.1-0.9-0.2-1.3-0.2l0,0c-0.2,0-0.5-0.1-0.5-0.1c0,0,0-0.1,0-0.2c0,0,0,0,0,0c0,0,0,0,0-0.1
						c0.2-0.4,0.1-0.9-0.2-1.2c-0.3-0.4-0.8-0.6-1.4-0.7c-0.8-0.1-1.3,0.2-1.9,0.4c0,0-0.1,0-0.1,0c-0.4,0.2-0.7,0.3-0.8,0.3
						c0,0,0,0,0-0.1c0.1-0.4,0-0.8-0.3-1c-0.3-0.3-0.6-0.5-1.1-0.5c-0.8-0.1-1.4,0.4-2,0.8c-0.5,0.5-0.5,0.5-1.2,0.4
						c-0.5,0-1,0-1.3,0.2c-0.5-0.1-0.9-0.3-1.3-0.4c0.4-0.4,1.1-0.9,2.3-0.9c0.1,0,0.6,0,0.6,0c0,0,0-0.1,0.2-0.2
						c0.6-0.5,1.3-1,2.4-1.1c0.1,0,0.1,0,0.2,0l0.2,0c0.6,0,1.2,0.3,1.6,0.7c0,0,0.1,0,0.1-0.1c0.4-0.2,0.9-0.3,1.3-0.5
						c0.7-0.3,1.3-0.5,2-0.8c0.1,0,0.2,0,0.3,0c0.7-0.2,0.7-0.1,1.3,0.2c0.6,0.3,1.3,0.7,2.1,0.5c0.4-0.1,0.8-0.3,1-0.7
						c0.2-0.3,0.3-0.7,0.2-1.1c0,0,0,0,0-0.1c0.1,0,0.4,0,0.9,0.1c0,0,0.1,0,0.1,0c0.6,0.1,1.2,0.3,2,0.1c0.6-0.2,1.1-0.5,1.4-0.9
						c0.3-0.4,0.3-0.8,0.1-1.2c0,0,0,0,0-0.1c0,0,0,0,0,0c-0.1-0.1-0.1-0.2-0.1-0.2c0,0,0.1-0.1,0.5-0.2l0,0
						c0.4-0.1,0.9-0.3,1.3-0.5c0.5-0.2,0.9-0.6,1.1-1c0.2-0.4,0.2-0.8,0-1.1C95,106.4,94.9,106.2,94.7,106.1z"/>
					<path class="st2" d="M110.7,61.5c-0.4-0.5-0.4-1.4,0-2.5c0.3-0.8,0.3-0.8-0.1-1.5c-0.3-0.7-0.6-1.6-0.3-2.6
						c0.2-0.5,0.5-0.9,0.9-1.2c0.4-0.3,0.9-0.3,1.3-0.1c0,0,0.1,0,0.1,0c0.1-0.2,0.1-0.5,0-1.1c0,0,0-0.1,0-0.1
						c-0.1-0.7-0.2-1.5,0.2-2.4c0.3-0.7,0.7-1.3,1.3-1.6c0.5-0.3,1.1-0.3,1.5,0.1c0,0,0,0,0.1,0.1c0,0,0,0,0,0
						c0.2,0.1,0.2,0.1,0.2,0.1c0,0,0.2-0.3,0.3-0.5l0,0c0.2-0.5,0.5-1,0.7-1.5c0.3-0.6,0.8-1,1.3-1.2c0.5-0.2,0.9-0.2,1.3,0.1
						c0.2,0.1,0.3,0.3,0.4,0.5l0,0c0.1,0.1,0.1,0.2,0.2,0.2c0,0,0.1,0,0.4-0.1c0.5-0.3,0.9-0.5,1.2-0.5c0.4-0.1,0.8,0,1.1,0.2
						s0.5,0.6,0.5,1c0,0.3,0,0.7-0.2,1.3c-0.1,0.4-0.1,0.4,0,0.4c0,0,0.1,0.1,0.3,0.1c0.2,0,0.5,0.1,0.6,0.3
						c0.4,0.3,0.5,0.7,0.5,1.2c-0.1,0.5-0.3,1.1-0.8,1.6c-0.4,0.4-0.9,0.8-1.2,1.1l0,0c-0.4,0.3-0.4,0.4-0.4,0.4c0,0,0,0.1,0.2,0.2
						c0,0,0,0,0,0c0,0,0,0,0.1,0c0.4,0.3,0.6,0.8,0.5,1.4c-0.1,0.6-0.5,1.2-1.2,1.7c-0.8,0.6-1.5,0.7-2.2,0.9c0,0-0.1,0-0.1,0
						c-0.6,0.1-0.9,0.2-1,0.3c0,0,0,0,0,0.1c0.3,0.3,0.4,0.8,0.3,1.3c-0.1,0.5-0.4,0.9-0.9,1.2c-0.8,0.6-1.8,0.6-2.6,0.5
						c-0.8-0.1-0.8-0.1-1.5,0.4c-1,0.7-1.8,0.9-2.4,0.7L110.7,61.5z"/>
					<path class="st0" d="M113.6,61.2c0.7-0.5,0.7-0.5,1.5-0.4c0.8,0.1,1.7,0.2,2.6-0.5c0.4-0.3,0.7-0.8,0.9-1.2
						c0.1-0.5,0-1-0.3-1.3c0,0,0,0,0-0.1c0.1-0.1,0.5-0.2,1-0.3c0,0,0.1,0,0.1,0c0.7-0.1,1.4-0.3,2.2-0.9c0.6-0.5,1-1.1,1.2-1.7
						c0.1-0.6-0.1-1.1-0.5-1.4c0,0,0,0-0.1,0c0,0,0,0,0,0c-0.2-0.1-0.2-0.2-0.2-0.2c0,0,0-0.1,0.4-0.4l0,0c0.4-0.3,0.8-0.7,1.2-1.1
						c0.5-0.5,0.8-1.1,0.8-1.6c0.1-0.5-0.1-1-0.5-1.2c-0.2-0.1-0.4-0.2-0.6-0.3c-0.1,0-0.2-0.1-0.3-0.1c0,0-0.1,0,0-0.4
						c0.1-0.6,0.2-1,0.2-1.3c0-0.5-0.2-0.8-0.5-1s-0.7-0.3-1.1-0.2c-0.3,0.1-0.7,0.2-1.2,0.5c-0.3,0.2-0.4,0.2-0.4,0.1
						c0,0-0.1-0.1-0.2-0.2l0,0c-0.1-0.2-0.3-0.4-0.4-0.5c-0.4-0.3-0.8-0.3-1.3-0.1c-0.5,0.2-1,0.6-1.3,1.2c-0.3,0.5-0.5,1.1-0.7,1.5
						l0,0c-0.1,0.2-0.3,0.5-0.3,0.5c0,0-0.1,0-0.2-0.1c0,0,0,0,0,0c0,0,0,0-0.1-0.1c-0.4-0.3-1-0.3-1.5-0.1c-0.6,0.3-1,0.9-1.3,1.6
						c-0.4,0.9-0.3,1.7-0.2,2.4c0,0,0,0.1,0,0.1c0.1,0.6,0.1,0.9,0,1.1c0,0,0,0-0.1,0c-0.4-0.2-0.9-0.2-1.3,0.1
						c-0.4,0.2-0.7,0.7-0.9,1.2c-0.4,1-0.1,1.9,0.3,2.6c0.3,0.7,0.4,0.8,0.1,1.5c-0.4,1.1-0.4,1.9,0,2.5l0.6,0.4
						C111.9,62.2,112.7,61.9,113.6,61.2z"/>
					<path class="st2" d="M126.2,72.8c-0.1,0.5-0.5,1-1.1,1.4c-0.5,0.3-1,0.7-1.4,0.9l0,0c-0.4,0.3-0.5,0.4-0.5,0.4
						c0,0,0,0.1,0.1,0.2c0,0,0,0,0,0c0,0,0,0,0.1,0.1c0.4,0.4,0.5,0.9,0.3,1.5c-0.2,0.6-0.7,1.1-1.4,1.5c-0.9,0.5-1.6,0.5-2.3,0.5
						c0,0-0.1,0-0.1,0c-0.6,0-0.9,0.1-1.1,0.1c0,0,0,0,0,0.1c0.3,0.4,0.3,0.8,0.1,1.3c-0.2,0.4-0.6,0.8-1,1.1
						c-0.9,0.5-1.8,0.3-2.6,0.1c-0.8-0.2-0.8-0.3-1.5,0.1c-1.1,0.5-1.9,0.6-2.5,0.3l-0.5-0.5c-0.3-0.6-0.2-1.4,0.4-2.5
						c0.4-0.7,0.4-0.8,0.2-1.5c-0.2-0.8-0.4-1.7,0.1-2.6c0.3-0.5,0.7-0.8,1.1-1c0.5-0.2,0.9-0.1,1.3,0.1c0,0,0.1,0,0.1,0
						c0.1-0.1,0.1-0.5,0.2-1.1c0,0,0-0.1,0-0.1c0-0.7,0.1-1.5,0.6-2.3c0.4-0.7,0.9-1.2,1.5-1.4c0.6-0.2,1.1-0.1,1.5,0.3
						c0,0,0,0,0.1,0.1c0,0,0,0,0,0c0.1,0.1,0.2,0.1,0.2,0.1c0,0,0.3-0.3,0.4-0.5l0,0c0.3-0.4,0.6-0.9,1-1.4c0.4-0.5,0.9-0.9,1.5-1
						c0.5-0.1,1,0,1.3,0.3c0.1,0.2,0.3,0.3,0.3,0.6l0,0c0,0.1,0.1,0.2,0.1,0.3c0,0,0.1,0.1,0.4-0.1c0.6-0.2,0.9-0.3,1.3-0.3
						c0.5,0,0.8,0.1,1.1,0.4c0.3,0.3,0.4,0.6,0.3,1.1c0,0.3-0.1,0.7-0.4,1.3C125,71,125,71,125.1,71c0,0,0.1,0.1,0.3,0.1
						c0.2,0.1,0.4,0.2,0.6,0.4C126.2,71.8,126.3,72.3,126.2,72.8z"/>
					<path class="st0" d="M125.3,71.2c-0.1,0-0.2-0.1-0.3-0.1c0,0-0.1-0.1,0.1-0.4c0.2-0.5,0.3-0.9,0.4-1.3c0-0.5-0.1-0.8-0.3-1.1
						c-0.3-0.3-0.6-0.4-1.1-0.4c-0.3,0-0.7,0.1-1.3,0.3c-0.4,0.1-0.4,0.1-0.4,0.1c0,0-0.1-0.1-0.1-0.3l0,0c-0.1-0.2-0.2-0.4-0.3-0.6
						c-0.3-0.3-0.8-0.4-1.3-0.3c-0.5,0.1-1,0.5-1.5,1c-0.4,0.4-0.7,1-1,1.4l0,0c-0.1,0.2-0.4,0.5-0.4,0.5c0,0-0.1,0-0.2-0.1
						c0,0,0,0,0,0c0,0,0,0-0.1-0.1c-0.4-0.4-0.9-0.5-1.5-0.3c-0.6,0.2-1.2,0.7-1.5,1.4c-0.5,0.9-0.5,1.6-0.6,2.3c0,0,0,0.1,0,0.1
						c0,0.6-0.1,0.9-0.2,1.1c0,0,0,0-0.1,0c-0.4-0.3-0.8-0.3-1.3-0.1c-0.4,0.2-0.8,0.5-1.1,1c-0.5,0.9-0.4,1.8-0.1,2.6
						c0.2,0.8,0.2,0.8-0.2,1.5c-0.6,1-0.7,1.9-0.4,2.5l0.5,0.5c0.6,0.3,1.4,0.3,2.5-0.3c0.7-0.4,0.8-0.4,1.5-0.1
						c0.8,0.2,1.7,0.4,2.6-0.1c0.5-0.2,0.9-0.6,1-1.1c0.2-0.5,0.2-0.9-0.1-1.3c0,0,0-0.1,0-0.1c0.1-0.1,0.5-0.1,1.1-0.1
						c0,0,0.1,0,0.1,0c0.7,0,1.5,0,2.3-0.5c0.7-0.4,1.2-0.9,1.4-1.5c0.2-0.6,0.1-1.1-0.3-1.5c0,0,0,0-0.1-0.1c0,0,0,0,0,0
						c-0.1-0.1-0.1-0.2-0.1-0.2c0,0,0.1-0.1,0.5-0.4l0,0c0.4-0.3,1-0.6,1.4-0.9c0.5-0.4,0.9-0.9,1.1-1.4c0.1-0.5,0-1-0.3-1.3
						C125.7,71.4,125.5,71.2,125.3,71.2z"/>
				</g>
				<g>
					<path class="st1" d="M18.3,58.2c0,0,0.1-0.1,0.2-0.3c0.2-0.3,0.3-0.8,0.4-1.2c0.2-0.2,0.2-0.4,0.2-0.9c0-0.7,0.1-1.5,0.7-2.1
						c0.3-0.3,0.7-0.5,1.1-0.5c0.4,0,0.8,0.1,1,0.4c0,0,0,0,0,0.1c0.1-0.1,0.2-0.4,0.4-0.8c0,0,0-0.1,0-0.1c0.2-0.6,0.4-1.2,1-1.7
						c0.5-0.4,1-0.7,1.6-0.7c0.5,0,0.9,0.2,1.1,0.6c0,0,0,0,0,0.1c0,0,0,0,0,0c0.1,0.1,0.1,0.2,0.1,0.2c0,0,0.1,0,0.4-0.3l0,0
						c0.3-0.3,0.7-0.6,1.1-0.9c0.5-0.3,1-0.5,1.4-0.4c0.4,0,0.8,0.2,0.9,0.6c0.1,0.2,0.1,0.4,0.1,0.6c0,0.1,0,0.2,0,0.2
						c0,0,0,0.1,0.3,0c0.5,0,0.8,0,1.1,0.1c0.4,0.1,0.6,0.3,0.8,0.6c0.1,0.3,0.1,0.6,0,1c-0.1,0.3-0.3,0.5-0.6,0.9
						c-0.2,0.2-0.2,0.3-0.2,0.3c0,0,0.1,0.1,0.2,0.2l0,0c0.2,0.1,0.3,0.3,0.4,0.4c0.2,0.3,0.1,0.7-0.1,1.1c-0.2,0.4-0.7,0.7-1.2,0.9
						c-0.4,0.2-0.9,0.3-1.3,0.4l0,0c-0.2,0.1-0.5,0.2-0.5,0.2c0,0,0,0.1,0,0.2c0,0,0,0,0,0c0,0,0,0,0,0.1c0.2,0.4,0.2,0.9-0.1,1.2
						c-0.3,0.4-0.9,0.7-1.5,0.8c-0.8,0.2-1.4,0-2-0.2c0,0-0.1,0-0.1,0c-0.5-0.1-0.7-0.2-0.9-0.2c0,0,0,0,0,0.1
						c0.1,0.4,0,0.8-0.2,1.1c-0.3,0.3-0.7,0.5-1.1,0.6c-0.9,0.1-1.5-0.2-2.1-0.6c-0.6-0.4-0.6-0.4-1.3-0.3c-0.5,0.1-1,0.1-1.3,0
						c-0.1-0.4-0.1-0.8-0.3-1.2C18.3,58.5,18.3,58.3,18.3,58.2z"/>
					<path class="st1" d="M29.2,96.6c0,0,0-0.3,0.1-0.5c0.1-1,0.2-2.4-0.8-3.7c-0.5-0.7-1.2-1.2-2-1.4C26.2,91,25.8,91,25.4,91
						c-0.2-0.9-0.4-1.9-1.2-2.9c-0.3-0.4-0.6-0.7-1-0.9c0.3-0.3,0.6-0.5,1-0.4c0,0,0.1,0,0.1,0c0,0,0,0,0,0c0.2,0,0.2,0,0.2,0
						c0,0,0-0.4,0-0.6l0,0c-0.1-0.5-0.1-1.1-0.2-1.6c0-0.7,0.1-1.3,0.4-1.7c0.3-0.4,0.7-0.6,1.1-0.6c0.2,0,0.4,0.1,0.6,0.2l0,0
						c0.1,0.1,0.2,0.1,0.3,0.1c0,0,0.1,0,0.2-0.3c0.3-0.5,0.5-0.8,0.7-1.1c0.3-0.3,0.6-0.4,1-0.4c0.4,0,0.7,0.2,0.9,0.6
						c0.2,0.3,0.3,0.6,0.5,1.2c0.1,0.3,0.2,0.4,0.2,0.4c0.1,0,0.1,0,0.3-0.1c0.2-0.1,0.4-0.1,0.6-0.1c0.4,0,0.8,0.3,1,0.8
						c0.2,0.5,0.3,1.1,0.1,1.7c-0.1,0.5-0.3,1.1-0.4,1.6l0,0c-0.1,0.5-0.1,0.6-0.1,0.6c0,0,0,0.1,0.2,0.1c0,0,0,0,0,0c0,0,0,0,0.1,0
						c0.5,0,0.9,0.4,1.1,0.9c0.2,0.6,0.2,1.3-0.1,2c-0.3,0.9-0.9,1.4-1.4,1.9c0,0-0.1,0-0.1,0.1c-0.4,0.4-0.6,0.6-0.7,0.8
						c0,0,0,0,0.1,0c0.4,0.1,0.7,0.4,0.9,0.9c0.1,0.4,0.1,1-0.1,1.4c-0.4,0.9-1.1,1.4-1.8,1.7c-0.2,0.1-0.3,0.1-0.4,0.2
						c-0.1-0.1-0.1-0.2-0.2-0.3C29.4,96.9,29.2,96.7,29.2,96.6z"/>
					<path class="st1" d="M10,90.4c-0.5,0.7-0.6,1.6-0.2,2.5c0.3,0.8,1,1.5,1.9,2c0.5,0.3,1,0.5,1.4,0.7c-0.2,0.7-0.1,1.4,0.2,2.1
						c0.5,0.8,1.3,1.6,2.4,2c1.3,0.5,2.3,0.4,3.2,0.3c0.1,0.3,0.2,0.7,0.4,1c0.4,0.7,1.1,1.2,1.9,1.5c0.9,0.3,1.8,0.3,2.8,0.1
						c0,0,0,0,0,0l-0.3,0.3c-0.5,0.3-1.5,0.2-2.7-0.3c-0.9-0.3-0.9-0.3-1.7-0.1c-0.8,0.2-1.7,0.3-2.8-0.1c-0.6-0.2-1.1-0.6-1.4-0.9
						c-0.3-0.4-0.4-0.8-0.3-1.1c0,0,0,0,0-0.1c-0.2-0.1-0.6-0.1-1.2-0.1c0,0-0.1,0-0.1,0c-0.8,0-1.6-0.1-2.7-0.5
						c-0.8-0.3-1.5-0.8-1.9-1.3c-0.4-0.5-0.4-0.9-0.1-1.2c0,0,0,0,0.1-0.1c0,0,0,0,0,0c0.1-0.1,0.1-0.2,0.1-0.2c0,0-0.2-0.1-0.4-0.2
						c-0.1,0-0.2-0.1-0.2-0.1l0,0c-0.5-0.2-1.2-0.5-1.8-0.8c-0.7-0.4-1.2-0.8-1.5-1.3c-0.3-0.4-0.3-0.8,0-1.1
						C5,93,5.2,92.9,5.4,92.9l0,0c0.1,0,0.2-0.1,0.2-0.1c0,0,0,0-0.2-0.3c-0.4-0.5-0.6-0.8-0.7-1.1c-0.2-0.4-0.1-0.7,0.1-0.9
						c0.2-0.2,0.6-0.3,1.1-0.3c0.4,0,0.8,0.1,1.5,0.3c0.4,0.1,0.4,0.1,0.5,0.1c0,0,0.1-0.1,0.1-0.2c0-0.2,0.1-0.4,0.2-0.5
						c0.3-0.3,0.7-0.4,1.3-0.2c0.3,0.1,0.7,0.2,1,0.4c0,0,0,0,0,0.1C10.2,90.1,10.1,90.2,10,90.4z"/>
					<path class="st1" d="M33.6,109.5c0.3,0.1,0.6,0.2,0.8,0.3c-0.1,0.5,0.1,1,0.4,1.5c0.4,0.7,1.2,1.1,2,1.4
						c0.4,0.1,0.7,0.1,1.1,0.1c0.4,0,0.8-0.1,1.1-0.1c0.1,0.2,0.2,0.4,0.3,0.5c0.3,0.4,0.8,0.7,1.4,0.9c-0.4,0.3-0.8,0.5-1.3,0.6
						c-0.5,0.1-1.1,0.1-1.5,0c-0.4-0.2-0.7-0.5-0.7-0.9c0,0,0-0.1,0-0.1c-0.2,0-0.5,0.2-1,0.6c0,0-0.1,0-0.1,0.1
						c-0.6,0.4-1.3,0.9-2.3,1.1c-0.8,0.2-1.5,0.2-2.1-0.1c-0.5-0.2-0.7-0.6-0.6-1.1c0,0,0,0,0-0.1c0,0,0,0,0,0c0-0.2,0-0.2,0-0.2
						c0,0-0.1,0-0.6,0.1l0,0c-0.5,0.1-1.2,0.2-1.7,0.3c-0.7,0.1-1.3,0-1.7-0.3c-0.4-0.2-0.6-0.6-0.5-1c0-0.2,0.1-0.4,0.3-0.6
						c0.1-0.1,0.1-0.2,0.1-0.2c0,0,0-0.1-0.3-0.2c-0.5-0.2-0.8-0.4-1.1-0.6c-0.3-0.3-0.4-0.5-0.4-0.9c0.1-0.3,0.3-0.6,0.7-0.9
						c0.3-0.2,0.7-0.4,1.3-0.6c0.4-0.1,0.4-0.2,0.4-0.2c0-0.1,0-0.1,0-0.2l0,0c-0.1-0.2-0.1-0.4-0.1-0.6c0.1-0.4,0.4-0.7,0.9-1
						c0.5-0.2,1.2-0.3,1.8-0.3c0.5,0.1,1.1,0.2,1.6,0.3c0,0.3,0.1,0.5,0.2,0.8C32.2,108.7,32.8,109.2,33.6,109.5z"/>
					<path class="st1" d="M53.3,112.8C53.3,112.8,53.3,112.8,53.3,112.8c0-0.1-0.2-0.2-0.5-0.3c0,0,0,0-0.1,0
						c-0.4-0.2-0.8-0.3-1.1-0.8c-0.3-0.3-0.4-0.7-0.4-1.1c0-0.3,0.2-0.6,0.5-0.7c0,0,0,0,0,0c0,0,0,0,0,0c0.1,0,0.1-0.1,0.1-0.1
						c0,0,0-0.1-0.2-0.3l0,0c-0.2-0.2-0.4-0.5-0.5-0.8c-0.2-0.3-0.3-0.7-0.2-1c0-0.3,0.2-0.5,0.4-0.6c0.1,0,0.2-0.1,0.4-0.1
						c0.1,0,0.1,0,0.2,0c0,0,0,0,0-0.2c0-0.3,0-0.6,0.1-0.7c0.1-0.2,0.2-0.4,0.4-0.5c0.2-0.1,0.4-0.1,0.6,0c0.2,0.1,0.4,0.2,0.6,0.5
						c0.2,0.1,0.2,0.1,0.2,0.1c0,0,0.1-0.1,0.1-0.1l0,0c0.1-0.1,0.2-0.2,0.3-0.2c0.2-0.1,0.5-0.1,0.7,0.1c0.2,0.2,0.4,0.5,0.5,0.9
						c0.1,0.3,0.1,0.7,0.2,0.9l0,0c0,0.1,0.1,0.3,0.1,0.3c0,0,0,0,0.1,0c0,0,0,0,0,0c0,0,0,0,0,0c0.3-0.1,0.6-0.1,0.8,0.2
						c0.3,0.2,0.5,0.6,0.5,1.1c0.1,0.6-0.1,1-0.2,1.3c0,0,0,0,0,0.1c-0.1,0.3-0.2,0.5-0.2,0.6c0,0,0,0,0,0c0.2-0.1,0.5,0,0.7,0.2
						c0.2,0.2,0.3,0.5,0.4,0.8c0.1,0.6-0.2,1-0.5,1.4c-0.3,0.3-0.3,0.4-0.3,0.8c-1.5-0.2-3-0.5-4.4-0.9
						C53,113.2,53.1,113,53.3,112.8z"/>
					<path class="st0" d="M18.1,78.6c-0.1-0.3-0.2-0.7-0.2-1c0.1-0.4,0.1-0.9,0.1-1.4c0.2-0.4,0.5-0.7,0.9-0.8
						c0.4-0.2,0.8-0.1,1.1,0.1c0,0,0,0,0.1,0c0.1-0.1,0.1-0.4,0.1-0.9c0,0,0-0.1,0-0.1c0-0.6,0-1.2,0.4-1.9c0.3-0.6,0.8-1,1.3-1.2
						c0.5-0.2,0.9-0.1,1.2,0.2c0,0,0,0,0,0c0,0,0,0,0,0c0.1,0.1,0.2,0.1,0.2,0.1c0,0,0.1,0,0.3-0.4l0,0c0.2-0.4,0.5-0.8,0.8-1.2
						c0.3-0.4,0.8-0.8,1.2-0.9c0.4-0.1,0.8,0,1.1,0.2c0.1,0.1,0.2,0.3,0.3,0.5c0,0.1,0.1,0.2,0.1,0.2c0,0,0,0,0.3-0.1
						c0.5-0.2,0.8-0.3,1.1-0.3c0.4,0,0.7,0.1,0.9,0.3s0.3,0.5,0.3,0.9c0,0.3-0.1,0.6-0.3,1.1c-0.1,0.3-0.1,0.3-0.1,0.3
						c0,0,0.1,0.1,0.2,0.1l0,0c0.2,0.1,0.4,0.2,0.5,0.3c0.3,0.3,0.4,0.6,0.3,1.1c-0.1,0.4-0.4,0.9-0.9,1.2c-0.4,0.3-0.8,0.6-1.1,0.8
						l0,0c-0.2,0.1-0.4,0.3-0.4,0.3s0,0.1,0.1,0.2c0,0,0,0,0,0c0,0,0,0,0.1,0.1c0.3,0.3,0.4,0.7,0.2,1.2c-0.2,0.5-0.6,1-1.2,1.3
						c-0.7,0.4-1.3,0.4-1.9,0.4c0,0-0.1,0-0.1,0c-0.5,0-0.8,0.1-0.9,0.1c0,0,0,0,0,0.1c0.2,0.3,0.2,0.7,0.1,1.1
						c-0.2,0.4-0.5,0.7-0.8,0.9c-0.8,0.4-1.5,0.3-2.2,0.1c-0.6-0.2-0.7-0.2-1.3,0.1c-0.3,0.1-0.5,0.2-0.8,0.3
						c-0.1-0.4-0.3-0.8-0.4-1.2C18.6,80.3,18.4,79.4,18.1,78.6z"/>
					<path class="st1" d="M14.8,45.8c-0.1,0-0.1,0-0.2-0.1L13.7,45c-0.8-0.6-1.6-2.7-1-3.5c0.6-0.8,2.8-0.5,3.6,0.1l0.9,0.7
						c0,0,0,0.1,0.1,0.1C16.3,42.9,15,44.8,14.8,45.8z"/>
					<path class="st0" d="M14.9,46.4c-0.1-0.1-0.1-0.3-0.1-0.6c0.2-1,1.6-2.9,2.5-3.4c0.2-0.1,0.5-0.1,0.6,0
						c1.1,0.8,1.3,2.4,0.5,3.5C17.5,47,16,47.2,14.9,46.4z"/>
					<path class="st1" d="M22.9,104.4l1.1-0.3c0,0,0.1,0,0.1,0c-0.2,1,0.4,3.3,1.1,4c-0.1,0-0.1,0.1-0.2,0.1l-1.1,0.3
						c-1,0.3-3.1-0.4-3.4-1.4C20.3,106.1,21.9,104.6,22.9,104.4z"/>
					<path class="st0" d="M24.1,104.1c0.1-0.3,0.2-0.5,0.4-0.5c1.3-0.3,2.7,0.4,3.1,1.8c0.3,1.3-0.4,2.7-1.8,3.1
						c-0.2,0-0.3-0.1-0.5-0.3C24.6,107.3,23.9,105.1,24.1,104.1z"/>
					<path class="st1" d="M22,68.4l-1.1,0.2c0,0-0.1,0-0.1,0c0.3-1-0.2-3.3-0.9-4.2c0.1,0,0.1-0.1,0.2-0.1l1.1-0.2
						c1-0.2,3.1,0.6,3.3,1.7C24.7,66.8,23,68.2,22,68.4z"/>
					<path class="st0" d="M20.7,68.6c-0.1,0.3-0.2,0.5-0.4,0.5c-1.4,0.3-2.7-0.6-3-2c-0.3-1.4,0.6-2.7,2-3c0.2,0,0.3,0.1,0.5,0.3
						C20.5,65.3,21,67.6,20.7,68.6z"/>
					<path class="st0" d="M48.2,113.9c-0.4-0.2-0.9-0.3-1.3-0.5c0,0,0,0,0,0C47.3,113.6,47.7,113.8,48.2,113.9z"/>
					<path class="st0" d="M17.2,52.7C17.2,52.7,17.2,52.7,17.2,52.7c1-3.1,2.4-6.2,4-9.1c0,0,0,0,0,0.1
						C19.6,46.5,18.3,49.6,17.2,52.7z"/>
					<polygon class="st0" points="33.2,30.2 33.2,30.2 33.2,30.2 					"/>
					<path class="st0" d="M17,72.8c0.1,0.5,0.1,1,0.2,1.5c0,0,0,0,0,0C17.1,73.7,17.1,73.2,17,72.8z"/>
					<path class="st0" d="M16.8,70.9c-0.1-1.3-0.2-2.7-0.2-4C16.6,68.3,16.7,69.6,16.8,70.9z"/>
					<path class="st0" d="M33.2,30.2c-0.1-0.1-0.3-0.2-0.4-0.3C32.9,30,33.1,30,33.2,30.2z"/>
					<path class="st0" d="M15.2,73c-0.1-0.7-0.2-1.4-0.2-2.1C15,71.6,15.1,72.3,15.2,73C15.2,73,15.2,73,15.2,73z"/>
					<path class="st0" d="M18.6,85.7C18.6,85.7,18.6,85.7,18.6,85.7c-0.4-0.9-0.7-1.8-1-2.7l0,0C17.9,83.9,18.2,84.8,18.6,85.7z"/>
					<path class="st0" d="M20.9,86.3c-0.2-0.5-0.5-1-0.7-1.5C20.4,85.3,20.6,85.8,20.9,86.3z"/>
					<path class="st0" d="M18.8,81.1c0.1,0.4,0.3,0.8,0.4,1.2c0,0.1,0,0.1,0.1,0.2C19.1,82,19,81.5,18.8,81.1z"/>
					<path class="st0" d="M17.9,77.7C17.9,77.7,17.9,77.6,17.9,77.7c0.1,0.3,0.2,0.6,0.3,1C18.1,78.3,18,78,17.9,77.7z"/>
					<path class="st0" d="M61.7,116.7c-0.2,0-0.3,0-0.5,0c0.2,0,0.3-0.1,0.4-0.1C61.6,116.6,61.6,116.6,61.7,116.7z"/>
					<path class="st0" d="M17.4,52.8c0,0-0.1,0-0.2-0.1c1-3.1,2.4-6.2,4-9.1c0,0,0,0,0-0.1c-0.2-0.5-0.2-1.2,0-2
						c0.2-0.8,0.2-0.8-0.2-1.5c-0.4-0.7-0.8-1.6-0.5-2.6c0.1-0.5,0.4-1,0.8-1.2c0.4-0.3,0.9-0.4,1.3-0.2c0,0,0.1,0,0.1,0
						c0-0.2,0-0.5-0.1-1.1c0,0,0-0.1,0-0.1c-0.2-0.7-0.3-1.5,0-2.4c0.2-0.7,0.6-1.4,1.2-1.7c0.5-0.3,1-0.3,1.5,0c0,0,0,0,0.1,0
						c0,0,0,0,0,0c0.2,0.1,0.2,0.1,0.2,0.1c0,0,0.1-0.1,0.3-0.5l0,0c0.2-0.5,0.4-1.1,0.6-1.6c0.3-0.6,0.7-1.1,1.2-1.3
						c0.5-0.2,0.9-0.2,1.3,0c0.2,0.1,0.3,0.3,0.5,0.5c0.1,0.1,0.1,0.2,0.2,0.2c0,0,0.1,0,0.4-0.2c0.5-0.3,0.9-0.5,1.2-0.6
						c0.4-0.1,0.8-0.1,1.1,0.1c0.3,0.2,0.5,0.5,0.6,1c0.1,0.3,0,0.7,0,1.3c0,0.1,0,0.2,0,0.3h0c0.2,0,0.3,0.1,0.4,0.3c0,0,0,0,0,0h0
						c0.2,0,0.4,0.1,0.6,0.2c0.4,0.2,0.6,0.7,0.6,1.2c0,0.5-0.2,1.1-0.7,1.7c-0.4,0.4-0.8,0.9-1.1,1.2l0,0c-0.2,0.2-0.4,0.5-0.4,0.5
						c0,0,0,0.1,0.2,0.2c0,0,0,0,0,0c0,0,0.1,0,0.1,0c0.5,0.3,0.7,0.8,0.6,1.4c-0.1,0.6-0.4,1.3-1,1.8c-0.7,0.7-1.5,0.9-2.2,1
						c0,0-0.1,0-0.1,0c-0.6,0.1-0.9,0.3-1,0.4c0,0,0,0,0.1,0.1c0.3,0.3,0.5,0.8,0.4,1.3c-0.1,0.5-0.3,0.9-0.7,1.3
						c-0.8,0.7-1.7,0.7-2.5,0.7c-0.8-0.1-0.9-0.1-1.5,0.5c-0.6,0.5-1.1,0.8-1.6,0.9c-1.7,3.1-3.2,6.4-4.2,9.8
						C18.3,53.6,17.9,53.1,17.4,52.8z"/>
					<path class="st0" d="M14.8,66.3C14.8,66.3,14.8,66.3,14.8,66.3c0-1.2,0.1-2.3,0.2-3.5c0.2,0.1,0.5,0.2,0.7,0.2c0,0,0,0,0,0
						c0.4,0.1,0.7,0,1.1-0.1c-0.1,1.3-0.2,2.6-0.2,3.9c0,1.3,0.1,2.7,0.2,4c0.1,0.6,0.1,1.2,0.2,1.8c0.1,0.5,0.1,1,0.2,1.4
						c-0.4-0.4-0.8-0.8-1.3-1c-0.2-0.1-0.5-0.1-0.7-0.2c-0.1-0.7-0.2-1.4-0.3-2.1c0-0.1,0-0.3,0-0.4c-0.1-1.2-0.1-2.4-0.1-3.6
						L14.8,66.3z"/>
					<path class="st0" d="M10.8,90.7c0.1-0.2,0.3-0.3,0.6-0.5c0.1-0.1,0.2-0.1,0.3-0.2c0,0,0.1-0.1-0.2-0.4c-0.3-0.6-0.5-1-0.6-1.4
						c-0.1-0.5-0.1-0.9,0.2-1.2s0.6-0.5,1.1-0.5c0.4,0,0.8,0,1.5,0.2c0.4,0.1,0.4,0.1,0.5,0c0-0.1,0.1-0.2,0.1-0.3l0,0
						c0.1-0.3,0.1-0.5,0.3-0.7c0.3-0.4,0.8-0.6,1.4-0.5c0.6,0.1,1.2,0.4,1.8,0.9c0.5,0.4,0.9,1,1.3,1.4l0,0c0.2,0.2,0.5,0.5,0.5,0.5
						c0,0,0.1,0,0.1-0.1c-0.3-0.7-0.7-1.5-1-2.2c-0.4-0.9-0.7-1.8-1-2.7l0.5-0.5l0.1-0.1c0.5-0.9,0.4-2.1-0.4-3.5
						c-0.1-0.2-0.2-0.3-0.2-0.4c0,0,0.1-0.1,0.1-0.3c0-0.1,0.1-0.3,0.1-0.4c0.1,0.3,0.2,0.6,0.3,1c0.2,0.8,0.4,1.6,0.7,2.4
						c0.1,0.4,0.3,0.9,0.5,1.3c0.3,0.8,0.6,1.6,0.9,2.4c0.2,0.5,0.4,1,0.7,1.5c0,0,0,0,0,0c0.1,0.3,0.3,0.6,0.4,0.8c0,0,0.1,0,0.1,0
						c0.7,0.1,1.4,0.6,1.9,1.3c0.7,0.9,0.8,1.7,1,2.5c0,0,0,0.1,0,0.1c0.1,0.6,0.2,1,0.3,1.1c0,0,0,0,0.1-0.1
						c0.4-0.3,0.9-0.5,1.4-0.3c0.5,0.1,1,0.5,1.4,1c0.7,0.9,0.7,2,0.6,2.9c-0.1,0.9-0.1,0.9,0.4,1.7c0.5,0.7,0.8,1.3,0.9,1.8
						c0.4,0.4,0.7,0.8,1.1,1.2c0,0,0,0,0,0c0.7,0.7,1.4,1.4,2.2,2.1c-0.4,0.2-0.6,0.5-0.8,0.7c-0.1,0.2-0.2,0.5-0.3,0.8
						c-0.3-0.2-0.5-0.5-0.8-0.7c-0.1,0-0.2-0.1-0.2-0.1c-0.4-0.4-0.7-0.8-1.1-1.2c-0.3-0.3-0.7-0.7-1-1c-0.6,0.3-1.4,0.2-2.4-0.2
						c-0.9-0.3-0.9-0.3-1.7,0.1c-0.8,0.4-1.8,0.7-2.9,0.3c-0.6-0.2-1-0.6-1.3-1c-0.3-0.5-0.3-1-0.1-1.5c0,0,0-0.1,0-0.1
						c-0.2-0.1-0.6-0.1-1.2,0c0,0-0.1,0-0.1,0c-0.8,0.1-1.6,0.2-2.7-0.2c-0.8-0.3-1.5-0.8-1.8-1.5c-0.3-0.6-0.3-1.2,0.1-1.7
						c0,0,0,0,0.1-0.1c0,0,0,0,0,0c0.1-0.2,0.1-0.3,0.1-0.3c0,0-0.1-0.1-0.6-0.4l0,0c-0.5-0.2-1.2-0.5-1.7-0.8
						c-0.7-0.4-1.2-0.9-1.4-1.5C10.5,91.6,10.5,91.1,10.8,90.7z"/>
					<path class="st0" d="M33.3,106.1c0.1-0.1,0.2-0.1,0.2-0.2c0,0,0-0.1-0.1-0.3c-0.3-0.4-0.4-0.7-0.5-0.9
						c-0.1-0.4-0.1-0.7,0.1-0.9c0.2-0.3,0.4-0.4,0.8-0.5c0.3,0,0.6,0,1.1,0c0.3,0,0.3,0,0.3,0c0,0,0-0.1,0.1-0.2l0,0
						c0-0.2,0.1-0.4,0.2-0.5c0.2-0.3,0.5-0.5,1-0.5c0.4,0,0.9,0.2,1.4,0.5c0.4,0.3,0.7,0.6,1,0.9l0,0c0.1,0.1,0.4,0.3,0.4,0.3
						c0,0,0.1,0,0.1-0.1c0,0,0,0,0,0c0,0,0,0,0-0.1c0.2-0.4,0.6-0.6,1.1-0.5c0.5,0,1.1,0.3,1.5,0.8c0.6,0.6,0.7,1.2,0.9,1.8
						c0,0,0,0.1,0,0.1c0.1,0.4,0.2,0.7,0.3,0.8c0,0,0,0,0,0c0.2-0.3,0.6-0.4,1-0.4c0.4,0.1,0.8,0.3,1.1,0.6c0.6,0.6,0.6,1.4,0.6,2.1
						c0,0.7,0,0.7,0.4,1.2c0.5,0.6,0.8,1.2,0.8,1.6c0.3,0.1,0.7,0.3,1.1,0.4c0,0,0,0,0,0c1.6,0.6,3.3,1.1,5,1.6
						c1.5,0.4,2.9,0.7,4.4,0.9c0.5,0.1,0.9,0.2,1.4,0.2c1,0.1,1.9,0.2,2.9,0.3c0.4-0.8,1.2-1.4,2.1-1.4h0.4c1.3,0,2.3,1,2.3,2.3v0.3
						c0,0.2-0.1,0.4-0.1,0.6l8.3,10.7c0.3,0.4,0.2,1-0.2,1.3c-0.2,0.1-0.4,0.2-0.6,0.2c-0.3,0-0.5-0.1-0.7-0.3l-8.1-10.4
						c-0.3,0.1-0.6,0.2-1,0.2h-0.4c-1.1,0-1.9-0.7-2.2-1.7c0-0.1,0-0.1,0-0.2c-0.1,0.1-0.3,0.1-0.4,0.1c0,0,0,0,0,0
						c-2,0-3.4,0.1-4.8,0.5c-0.4,0.1-0.8,0.2-1.2,0.3c-0.1,0.4-0.4,0.8-0.8,1.2c-0.5,0.4-0.5,0.5-0.5,1.1c0,0.7-0.2,1.4-0.8,2
						c-0.3,0.3-0.7,0.4-1.1,0.4c-0.4,0-0.7-0.2-0.9-0.5c0,0,0,0,0-0.1c-0.1,0.1-0.2,0.3-0.4,0.8c0,0,0,0.1,0,0.1
						c-0.2,0.6-0.4,1.1-1,1.6c-0.5,0.4-1,0.6-1.5,0.5c-0.5,0-0.8-0.3-1-0.7c0,0,0,0,0-0.1c0,0,0,0,0,0c-0.1-0.2-0.1-0.2-0.1-0.2
						c0,0-0.1,0-0.4,0.2l0,0c-0.3,0.2-0.7,0.5-1.1,0.7c-0.5,0.3-0.9,0.4-1.4,0.3c-0.4-0.1-0.7-0.3-0.9-0.7c-0.1-0.2-0.1-0.4-0.1-0.6
						c0-0.1,0-0.2,0-0.2c0,0,0-0.1-0.3-0.1c-0.5,0-0.8-0.1-1-0.2c-0.3-0.1-0.6-0.3-0.7-0.6c-0.1-0.3-0.1-0.6,0-1
						c0.1-0.2,0.3-0.5,0.6-0.9c0.2-0.2,0.2-0.3,0.2-0.3c0,0-0.1-0.1-0.2-0.2l0,0c-0.1-0.1-0.3-0.3-0.3-0.5c-0.2-0.4-0.1-0.7,0.1-1.1
						c0.2-0.4,0.7-0.6,1.2-0.8c0.4-0.1,0.9-0.2,1.3-0.2l0,0c0.2,0,0.5-0.1,0.5-0.1c0,0,0-0.1,0-0.2c0,0,0,0,0,0c0,0,0,0,0-0.1
						c-0.2-0.4-0.1-0.9,0.2-1.2c0.3-0.4,0.8-0.6,1.4-0.7c0.8-0.1,1.3,0.2,1.9,0.4c0,0,0.1,0,0.1,0c0.4,0.2,0.7,0.3,0.8,0.3
						c0,0,0,0,0-0.1c-0.1-0.4,0-0.8,0.3-1c0.3-0.3,0.6-0.5,1.1-0.5c0.8-0.1,1.4,0.4,2,0.8c0.5,0.5,0.5,0.5,1.2,0.4
						c0.5,0,1,0,1.3,0.2c0.5-0.1,0.9-0.3,1.3-0.4c-0.4-0.4-1.1-0.9-2.3-0.9c-0.1,0-0.6,0-0.6,0c0,0,0-0.1-0.2-0.2
						c-0.6-0.5-1.3-1-2.4-1.1c-0.1,0-0.1,0-0.2,0l-0.2,0c-0.6,0-1.2,0.3-1.6,0.7c0,0-0.1,0-0.1-0.1c-0.4-0.2-0.9-0.3-1.3-0.5
						c-0.7-0.3-1.3-0.5-2-0.8c-0.1,0-0.2,0-0.3,0c-0.7-0.2-0.7-0.1-1.3,0.2c-0.6,0.3-1.3,0.7-2.1,0.5c-0.4-0.1-0.8-0.3-1-0.7
						c-0.2-0.3-0.3-0.7-0.2-1.1c0,0,0,0,0-0.1c-0.1,0-0.4,0-0.9,0.1c0,0-0.1,0-0.1,0c-0.6,0.1-1.2,0.3-2,0.1
						c-0.6-0.2-1.1-0.5-1.4-0.9c-0.3-0.4-0.3-0.8-0.1-1.2c0,0,0,0,0-0.1c0,0,0,0,0,0c0.1-0.1,0.1-0.2,0.1-0.2c0,0-0.1-0.1-0.5-0.2
						l0,0c-0.4-0.1-0.9-0.3-1.3-0.5c-0.5-0.2-0.9-0.6-1.1-1c-0.2-0.4-0.2-0.8,0-1.1C32.9,106.4,33.1,106.2,33.3,106.1z"/>
					<path class="st2" d="M16.7,61.9c-0.6,0.2-1.4,0-2.4-0.7c-0.7-0.5-0.7-0.5-1.5-0.4C12,61,11.1,61,10.3,60.4
						c-0.4-0.3-0.7-0.8-0.9-1.2c-0.1-0.5,0-1,0.3-1.3c0,0,0,0,0-0.1c-0.1-0.1-0.5-0.2-1-0.3c0,0-0.1,0-0.1,0
						c-0.7-0.1-1.4-0.3-2.2-0.9c-0.6-0.5-1-1.1-1.2-1.7c-0.1-0.6,0.1-1.1,0.5-1.4c0,0,0,0,0.1,0c0,0,0,0,0,0C6,53.4,6,53.3,6,53.3
						c0,0,0-0.1-0.4-0.4l0,0c-0.4-0.3-0.8-0.7-1.2-1.1c-0.5-0.5-0.8-1.1-0.8-1.6c-0.1-0.5,0.1-1,0.5-1.2c0.2-0.1,0.4-0.2,0.6-0.3
						c0.1,0,0.2-0.1,0.3-0.1c0,0,0.1,0,0-0.4c-0.1-0.6-0.2-1-0.2-1.3c0-0.5,0.2-0.8,0.5-1c0.3-0.2,0.7-0.3,1.1-0.2
						c0.3,0.1,0.7,0.2,1.2,0.5c0.3,0.2,0.4,0.2,0.4,0.1c0,0,0.1-0.1,0.2-0.2l0,0c0.1-0.2,0.3-0.4,0.4-0.5c0.4-0.3,0.8-0.3,1.3-0.1
						c0.5,0.2,1,0.6,1.3,1.2c0.3,0.5,0.5,1.1,0.7,1.5l0,0c0.1,0.2,0.3,0.5,0.3,0.5c0,0,0.1,0,0.2-0.1c0,0,0,0,0,0c0,0,0,0,0.1-0.1
						c0.4-0.3,1-0.3,1.5-0.1c0.6,0.3,1,0.9,1.3,1.6c0.4,0.9,0.3,1.7,0.2,2.4c0,0,0,0.1,0,0.1c-0.1,0.6-0.1,0.9,0,1.1c0,0,0,0,0.1,0
						c0.4-0.2,0.9-0.2,1.3,0.1c0.4,0.2,0.7,0.7,0.9,1.2c0.4,1,0.1,1.9-0.3,2.6c-0.3,0.7-0.4,0.8-0.1,1.5c0.4,1.1,0.4,1.9,0,2.5
						L16.7,61.9z"/>
					<path class="st0" d="M14.3,61.2c-0.7-0.5-0.7-0.5-1.5-0.4C12,61,11.1,61,10.3,60.4c-0.4-0.3-0.7-0.8-0.9-1.2
						c-0.1-0.5,0-1,0.3-1.3c0,0,0,0,0-0.1c-0.1-0.1-0.5-0.2-1-0.3c0,0-0.1,0-0.1,0c-0.7-0.1-1.4-0.3-2.2-0.9c-0.6-0.5-1-1.1-1.2-1.7
						c-0.1-0.6,0.1-1.1,0.5-1.4c0,0,0,0,0.1,0c0,0,0,0,0,0C6,53.4,6,53.3,6,53.3c0,0,0-0.1-0.4-0.4l0,0c-0.4-0.3-0.8-0.7-1.2-1.1
						c-0.5-0.5-0.8-1.1-0.8-1.6c-0.1-0.5,0.1-1,0.5-1.2c0.2-0.1,0.4-0.2,0.6-0.3c0.1,0,0.2-0.1,0.3-0.1c0,0,0.1,0,0-0.4
						c-0.1-0.6-0.2-1-0.2-1.3c0-0.5,0.2-0.8,0.5-1c0.3-0.2,0.7-0.3,1.1-0.2c0.3,0.1,0.7,0.2,1.2,0.5c0.3,0.2,0.4,0.2,0.4,0.1
						c0,0,0.1-0.1,0.2-0.2l0,0c0.1-0.2,0.3-0.4,0.4-0.5c0.4-0.3,0.8-0.3,1.3-0.1c0.5,0.2,1,0.6,1.3,1.2c0.3,0.5,0.5,1.1,0.7,1.5l0,0
						c0.1,0.2,0.3,0.5,0.3,0.5c0,0,0.1,0,0.2-0.1c0,0,0,0,0,0c0,0,0,0,0.1-0.1c0.4-0.3,1-0.3,1.5-0.1c0.6,0.3,1,0.9,1.3,1.6
						c0.4,0.9,0.3,1.7,0.2,2.4c0,0,0,0.1,0,0.1c-0.1,0.6-0.1,0.9,0,1.1c0,0,0,0,0.1,0c0.4-0.2,0.9-0.2,1.3,0.1
						c0.4,0.2,0.7,0.7,0.9,1.2c0.4,1,0.1,1.9-0.3,2.6c-0.3,0.7-0.4,0.8-0.1,1.5c0.4,1.1,0.4,1.9,0,2.5l-0.6,0.4
						C16.1,62.2,15.3,61.9,14.3,61.2z"/>
					<path class="st2" d="M2.1,71.5c0.1-0.2,0.3-0.3,0.6-0.4c0.1,0,0.2-0.1,0.3-0.1c0,0,0.1-0.1-0.1-0.4c-0.2-0.5-0.3-0.9-0.4-1.3
						c0-0.5,0.1-0.8,0.3-1.1s0.6-0.4,1.1-0.4c0.3,0,0.7,0.1,1.3,0.3c0.4,0.1,0.4,0.1,0.4,0.1c0,0,0.1-0.1,0.1-0.3l0,0
						c0.1-0.2,0.2-0.4,0.3-0.6c0.3-0.3,0.8-0.4,1.3-0.3c0.5,0.1,1,0.5,1.5,1c0.4,0.4,0.7,1,1,1.4l0,0c0.1,0.2,0.4,0.5,0.4,0.5
						c0,0,0.1,0,0.2-0.1c0,0,0,0,0,0c0,0,0,0,0.1-0.1c0.4-0.4,0.9-0.5,1.5-0.3c0.6,0.2,1.2,0.7,1.5,1.4c0.5,0.9,0.5,1.6,0.6,2.3
						c0,0,0,0.1,0,0.1c0,0.6,0.1,0.9,0.2,1.1c0,0,0,0,0.1,0c0.4-0.3,0.8-0.3,1.3-0.1c0.4,0.2,0.8,0.5,1.1,1c0.5,0.9,0.4,1.8,0.1,2.6
						c-0.2,0.8-0.2,0.8,0.2,1.5c0.6,1,0.7,1.9,0.4,2.5l-0.5,0.5c-0.6,0.3-1.4,0.3-2.5-0.3c-0.7-0.4-0.8-0.4-1.5-0.1
						c-0.8,0.2-1.7,0.4-2.6-0.1c-0.5-0.2-0.9-0.6-1-1.1c-0.2-0.5-0.2-0.9,0.1-1.3c0,0,0-0.1,0-0.1c-0.1-0.1-0.5-0.1-1.1-0.1
						c0,0-0.1,0-0.1,0c-0.7,0-1.5,0-2.3-0.5c-0.7-0.4-1.2-0.9-1.4-1.5c-0.2-0.6-0.1-1.1,0.3-1.5c0,0,0,0,0.1-0.1c0,0,0,0,0,0
						c0.1-0.1,0.1-0.2,0.1-0.2c0,0-0.1-0.1-0.5-0.4l0,0c-0.4-0.3-1-0.6-1.4-0.9c-0.5-0.4-0.9-0.9-1.1-1.4
						C1.7,72.3,1.8,71.8,2.1,71.5z"/>
					<path class="st0" d="M2.6,71.2c0.1,0,0.2-0.1,0.3-0.1c0,0,0.1-0.1-0.1-0.4c-0.2-0.5-0.3-0.9-0.4-1.3c0-0.5,0.1-0.8,0.3-1.1
						s0.6-0.4,1.1-0.4c0.3,0,0.7,0.1,1.3,0.3c0.4,0.1,0.4,0.1,0.4,0.1c0,0,0.1-0.1,0.1-0.3l0,0c0.1-0.2,0.2-0.4,0.3-0.6
						c0.3-0.3,0.8-0.4,1.3-0.3c0.5,0.1,1,0.5,1.5,1c0.4,0.4,0.7,1,1,1.4l0,0c0.1,0.2,0.4,0.5,0.4,0.5c0,0,0.1,0,0.2-0.1c0,0,0,0,0,0
						c0,0,0,0,0.1-0.1c0.4-0.4,0.9-0.5,1.5-0.3c0.6,0.2,1.2,0.7,1.5,1.4c0.5,0.9,0.5,1.6,0.6,2.3c0,0,0,0.1,0,0.1
						c0,0.6,0.1,0.9,0.2,1.1c0,0,0,0,0.1,0c0.4-0.3,0.8-0.3,1.3-0.1c0.4,0.2,0.8,0.5,1.1,1c0.5,0.9,0.4,1.8,0.1,2.6
						c-0.2,0.8-0.2,0.8,0.2,1.5c0.6,1,0.7,1.9,0.4,2.5l-0.5,0.5c-0.6,0.3-1.4,0.3-2.5-0.3c-0.7-0.4-0.8-0.4-1.5-0.1
						c-0.8,0.2-1.7,0.4-2.6-0.1c-0.5-0.2-0.9-0.6-1-1.1c-0.2-0.5-0.2-0.9,0.1-1.3c0,0,0-0.1,0-0.1c-0.1-0.1-0.5-0.1-1.1-0.1
						c0,0-0.1,0-0.1,0c-0.7,0-1.5,0-2.3-0.5c-0.7-0.4-1.2-0.9-1.4-1.5c-0.2-0.6-0.1-1.1,0.3-1.5c0,0,0,0,0.1-0.1c0,0,0,0,0,0
						c0.1-0.1,0.1-0.2,0.1-0.2c0,0-0.1-0.1-0.5-0.4l0,0c-0.4-0.3-1-0.6-1.4-0.9c-0.5-0.4-0.9-0.9-1.1-1.4c-0.1-0.5,0-1,0.3-1.3
						C2.2,71.4,2.4,71.2,2.6,71.2z"/>
				</g>
			</g>
			<g>
				<path class="st3" d="M91.6,14.2C91.6,14.2,91.7,14.2,91.6,14.2C91.7,14.2,91.6,14.2,91.6,14.2L91.6,14.2z"/>
				<path class="st1" d="M91.6,14.2L91.6,14.2c-0.3-0.1-0.5-0.1-0.8-0.1l0,0C91.1,14.1,91.4,14.1,91.6,14.2z"/>
				<path class="st3" d="M69.4,15.6c1.2,0.1,2.4,0.2,3.6,0.3l0.2-1.4c-1.2-0.1-2.5-0.3-3.7-0.3L69.4,15.6z"/>
				<path class="st3" d="M73.8,9.3c-1.3-0.2-2.7-0.3-4-0.4l-0.1,1.4c1.3,0.1,2.6,0.2,3.9,0.4L73.8,9.3z"/>
				<path class="st3" d="M68.1,12.9c0,0.4,0,0.8-0.1,1.1C68.1,13.7,68.1,13.3,68.1,12.9c0.9,0,1.7,0.1,2.6,0.2l0.1-1.4
					c-0.9-0.1-1.8-0.1-2.7-0.2c0-0.4,0-0.8,0.1-1.2c0,0.4,0,0.8-0.1,1.2C68.1,11.9,68.1,12.4,68.1,12.9z"/>
				<path class="st3" d="M71.3,18.3c0.5,0.1,1,0.1,1.6,0.2c0.1-0.5,0.1-1,0.2-1.4c-0.5-0.1-1.1-0.1-1.6-0.2L71.3,18.3z"/>
				<path class="st3" d="M67.8,18.5c0-0.1,0-0.2,0-0.4c0.8,0,1.6,0.1,2.4,0.1l0.1-1.4c-0.8-0.1-1.6-0.1-2.5-0.1c0-0.4,0-0.8,0.1-1.2
					c0,0.4,0,0.8-0.1,1.2c0,0.5,0,1-0.1,1.4C67.8,18.2,67.8,18.3,67.8,18.5c-0.1,0-0.2,0-0.3,0c0,0,0,0,0,0c1.9,0.1,3.7,0.2,5.6,0.5
					c-0.1,0-0.2,0-0.3,0v0C72.9,18.9,67.7,18.5,67.8,18.5z"/>
				<path class="st3" d="M55,18.9C55,18.9,55,18.9,55,18.9c0.1,0,0.2,0,0.3,0C55.2,18.9,55.1,18.9,55,18.9z"/>
				<path class="st3" d="M71.9,11.7l-0.1,1.4c0.6,0.1,1.1,0.1,1.7,0.2v0c0.1-0.5,0.1-1,0.2-1.4c0.1-1.1,0.3-2.3,0.4-3.4
					c-0.1,1.1-0.3,2.3-0.4,3.4C73.1,11.8,72.5,11.8,71.9,11.7z"/>
				<path class="st3" d="M58.5,10.3l-0.1-1.4c-1.3,0.1-2.7,0.2-4,0.3l0.2,1.4C55.9,10.5,57.2,10.4,58.5,10.3z"/>
				<path class="st3" d="M55.9,11.7c-0.5,0-0.9,0.1-1.4,0.2c0.1,0.5,0.1,1,0.2,1.4c0.5-0.1,0.9-0.1,1.4-0.2L55.9,11.7z"/>
				<path class="st3" d="M55.2,15.9c1.2-0.1,2.4-0.2,3.6-0.3l-0.1-1.4c-1.2,0.1-2.5,0.2-3.7,0.3L55.2,15.9z"/>
				<path class="st3" d="M56.4,16.9c-0.4,0-0.9,0.1-1.3,0.2c0.1,0.5,0.1,1,0.2,1.4c0.4,0,0.8-0.1,1.3-0.2L56.4,16.9z"/>
				<path class="st3" d="M57.6,18.2c0.9-0.1,1.8-0.1,2.7-0.2c0,0.1,0,0.2,0,0.4c0.1,0,0.2,0,0.3,0c0,0,0,0,0,0c-0.1,0-0.2,0-0.3,0
					c0-0.1,0-0.2,0-0.4c0-0.5,0-1-0.1-1.4c-0.9,0-1.9,0.1-2.8,0.2L57.6,18.2z"/>
				<path class="st3" d="M59.6,10.3c0.1,0,0.2,0,0.3,0c0,0.4,0,0.8,0.1,1.2c-1,0-2,0.1-3,0.2l0.1,1.4c1-0.1,2-0.1,2.9-0.2
					c0,0.4,0,0.8,0.1,1.1c-0.1,0-0.2,0-0.3,0l0.1,1.4c0.1,0,0.2,0,0.3,0c0,0.4,0,0.8,0.1,1.2c0-0.4,0-0.8-0.1-1.2c0-0.5,0-1-0.1-1.4
					c0-0.4,0-0.8-0.1-1.1c0-0.5,0-1-0.1-1.4c0-0.4,0-0.8-0.1-1.2c0-0.5,0-1-0.1-1.4c-0.1,0-0.2,0-0.3,0L59.6,10.3z"/>
				<path class="st3" d="M68.4,14c-0.1,0-0.2,0-0.3,0c0,0.5,0,1-0.1,1.4c0.1,0,0.2,0,0.3,0L68.4,14z"/>
				<path class="st3" d="M84.9,20.9c0.1,0,0.3,0.1,0.4,0.1v0c0.1-0.5,0.3-0.9,0.4-1.4c-0.1,0-0.3-0.1-0.4-0.1L84.9,20.9z"/>
				<path class="st3" d="M82.4,17.5l0.3-1.4c-0.5-0.1-1-0.2-1.5-0.3c-0.1,0.5-0.2,0.9-0.3,1.4c-0.2,1-0.4,1.9-0.6,2.9
					c0.2-1,0.4-1.9,0.6-2.9C81.4,17.3,81.9,17.4,82.4,17.5z"/>
				<path class="st3" d="M83.6,12.5L84,11c-0.5-0.1-1.1-0.2-1.6-0.3c-0.1,0.5-0.2,0.9-0.3,1.4c-0.3,1.2-0.5,2.5-0.8,3.7
					c0.3-1.2,0.5-2.5,0.8-3.7C82.6,12.2,83.1,12.3,83.6,12.5z"/>
				<path class="st3" d="M85.5,21.4c-0.1,0-0.2-0.1-0.3-0.1C85.3,21.4,85.4,21.4,85.5,21.4C85.5,21.4,85.5,21.4,85.5,21.4z"/>
				<path class="st3" d="M80,20.1C80,20.1,80,20.1,80,20.1c0.1,0,0.2,0,0.3,0.1C80.2,20.1,80.1,20.1,80,20.1z"/>
				<path class="st3" d="M83.5,17.8c0.9,0.2,1.7,0.5,2.6,0.7c0.1-0.5,0.3-0.9,0.4-1.4c-0.9-0.3-1.8-0.5-2.6-0.7L83.5,17.8z"/>
				<path class="st3" d="M81.5,14.7c1.2,0.3,2.5,0.6,3.7,0.9l0.4-1.4c-1.3-0.3-2.5-0.6-3.8-0.9L81.5,14.7z"/>
				<path class="st3" d="M80.4,19.8c1.2,0.3,2.3,0.5,3.4,0.8l0.4-1.4c-1.2-0.3-2.4-0.6-3.5-0.9L80.4,19.8z"/>
				<path class="st3" d="M84.7,12.7c0.9,0.2,1.9,0.5,2.8,0.8c0.1-0.5,0.3-0.9,0.4-1.4c-0.9-0.3-1.9-0.5-2.8-0.8L84.7,12.7z"/>
				<path class="st3" d="M86.3,15.8c0.2,0,0.3,0.1,0.5,0.1c0.1-0.5,0.3-0.9,0.4-1.4c-0.2,0-0.3-0.1-0.5-0.1L86.3,15.8z"/>
				<path class="st3" d="M64.1,9.6c-1.4,0-2.5,1-2.4,2.1c0.1,2,0.1,4,0.2,5.9c1.5,0,3,0,4.5,0c0.1-2,0.1-4,0.2-5.9
					C66.5,10.6,65.5,9.6,64.1,9.6z"/>
				<path class="st3" d="M50.1,21.9c0.7,0.2,1.3,0.4,2,0.6c0.6-0.4,1.1-0.8,1.7-1.2c-0.7-0.2-1.3-0.4-2-0.6
					C51.2,21.1,50.6,21.5,50.1,21.9z"/>
				<path class="st3" d="M52.9,12.4c-0.1-1.1-1.4-1.9-2.7-1.7c-1.4,0.2-2.3,1.3-2.1,2.5c0.4,1.9,0.7,3.9,1.1,5.8
					c1.5-0.3,3-0.5,4.5-0.7C53.4,16.4,53.1,14.4,52.9,12.4z"/>
				<path class="st3" d="M42.6,15.6c1.2-0.3,2.5-0.6,3.7-0.9L46,13.2c-1.3,0.3-2.5,0.6-3.8,0.9L42.6,15.6z"/>
				<path class="st3" d="M83.7,25.7C70.8,22,57.2,22,44.3,25.6C57.5,28.6,70.5,28.6,83.7,25.7z"/>
				<path class="st3" d="M45.5,22.1c-0.5,0.1-0.8,0.6-0.7,1c0.1,0.4,0.6,0.7,1.1,0.6c0.5-0.1,0.8-0.6,0.7-1
					C46.4,22.2,46,22,45.5,22.1z"/>
				<path class="st3" d="M57.9,20c-0.5,0-0.9,0.4-0.8,0.9c0,0.5,0.5,0.8,0.9,0.8c0.5,0,0.8-0.4,0.8-0.9C58.9,20.3,58.4,20,57.9,20z"
					/>
				<path class="st3" d="M78,10.8c-1.4-0.2-2.6,0.5-2.7,1.7c-0.3,2-0.5,3.9-0.8,5.9c1.5,0.2,3,0.5,4.5,0.7c0.4-1.9,0.8-3.9,1.1-5.8
					C80.3,12.1,79.4,11,78,10.8z"/>
				<path class="st3" d="M82.6,22.1c-0.5-0.1-1,0.2-1.1,0.6c-0.1,0.5,0.2,0.9,0.7,1c0.5,0.1,0.9-0.1,1.1-0.6S83,22.3,82.6,22.1z"/>
				<path class="st3" d="M62.2,20.7c0.6,0.3,1.2,0.6,1.9,0.9c0.6-0.3,1.2-0.6,1.9-0.9c-0.6-0.3-1.2-0.6-1.9-0.9
					C63.4,20.1,62.8,20.4,62.2,20.7z"/>
				<path class="st3" d="M74.4,21.4c0.6,0.4,1.1,0.8,1.7,1.2c0.7-0.2,1.3-0.4,2-0.5c-0.6-0.4-1.1-0.8-1.7-1.2
					C75.7,21,75,21.2,74.4,21.4z"/>
				<path class="st3" d="M70,20c-0.5,0-0.9,0.3-0.9,0.8c0,0.5,0.3,0.9,0.8,0.9c0.5,0,0.9-0.3,0.9-0.8C70.8,20.5,70.5,20.1,70,20z"/>
				<path class="st3" d="M45.8,17.4c0.5-0.1,1-0.2,1.4-0.3c-0.1-0.5-0.2-0.9-0.3-1.4c-0.5,0.1-1,0.2-1.5,0.3L45.8,17.4z"/>
				<path class="st3" d="M43.1,11.2c-0.9,0.2-1.9,0.5-2.9,0.8c0.1,0.5,0.3,0.9,0.4,1.4c0.9-0.3,1.9-0.5,2.8-0.8L43.1,11.2z"/>
				<path class="st3" d="M44.6,12.4c0.5-0.1,1-0.2,1.6-0.3c-0.1-0.5-0.2-0.9-0.3-1.4c-0.5,0.1-1.1,0.2-1.6,0.3L44.6,12.4z"/>
				<path class="st3" d="M44.4,16.3c-0.9,0.2-1.8,0.5-2.7,0.7c0.1,0.5,0.3,0.9,0.4,1.4v0c0.9-0.2,1.7-0.5,2.6-0.7L44.4,16.3z"/>
				<path class="st3" d="M48.1,20C48.1,20,48.1,20,48.1,20c-0.1,0-0.2,0-0.3,0.1c-0.2-1-0.4-1.9-0.6-2.9c0.2,1,0.4,1.9,0.6,2.9
					C47.9,20,48,20,48.1,20z"/>
				<path class="st3" d="M44,20.6c1.1-0.3,2.3-0.6,3.4-0.8l-0.3-1.4c-1.2,0.3-2.3,0.5-3.5,0.9L44,20.6z"/>
				<path class="st3" d="M40.8,13.8c-0.1-0.2-0.1-0.4-0.1-0.4C40.7,13.5,40.7,13.7,40.8,13.8z"/>
				<path class="st3" d="M42.6,21.4c1.8-0.5,3.6-1,5.5-1.4c-1.8,0.4-3.4,0.8-5.2,1.3C42.8,21.3,42.7,21.3,42.6,21.4z"/>
				<path class="st3" d="M42.4,19.5c0.1,0.5,0.3,0.9,0.4,1.4c0,0.1,0.1,0.2,0.1,0.4l-0.7-2.5C42.2,19,42.3,19.3,42.4,19.5z"/>
				<path class="st1" d="M43.1,11.2l0.3,1.4c-1,0.2-1.9,0.5-2.8,0.8c0,0.1,0.1,0.2,0.1,0.4c0.1,0.2,0.1,0.4,0.2,0.6c0,0,0,0,0,0
					c0.1,0.3,0.2,0.7,0.3,1c0,0.1,0.1,0.3,0.1,0.4c0.1,0.4,0.2,0.8,0.3,1.1c0.9-0.3,1.8-0.5,2.7-0.7l0.3,1.4
					c-0.9,0.2-1.8,0.5-2.6,0.7c0,0.1,0.1,0.3,0.1,0.4l0.7,2.5c1.8-0.5,3.4-0.9,5.2-1.3c0,0,0,0,0,0c-0.1,0-0.2,0-0.3,0.1
					c-0.2-1-0.4-1.9-0.6-2.9c-0.5,0.1-1,0.2-1.4,0.3L45.4,16c0.5-0.1,1-0.2,1.5-0.3c-0.3-1.2-0.5-2.5-0.8-3.7
					c-0.5,0.1-1,0.2-1.6,0.3L44.2,11c0.5-0.1,1.1-0.2,1.6-0.3c-0.1-0.2-0.1-0.5-0.2-0.7c-0.7,0.1-1.3,0.3-2,0.4l0,0l-0.4,0.1l0,0
					l0,0c-1.1,0.3-2.2,0.6-3.2,0.9c0.1,0.2,0.1,0.5,0.2,0.7C41.2,11.7,42.2,11.5,43.1,11.2z M47.1,18.3l0.3,1.4
					c-1.2,0.3-2.3,0.5-3.4,0.8l-0.4-1.4C44.7,18.9,45.9,18.6,47.1,18.3z M46,13.2l0.3,1.4c-1.2,0.3-2.5,0.6-3.7,0.9l-0.4-1.4
					C43.5,13.8,44.7,13.5,46,13.2z"/>
				<path class="st1" d="M55.9,11.7l0.1,1.4c-0.5,0-0.9,0.1-1.4,0.2c0.1,1.2,0.3,2.5,0.4,3.7c0.4,0,0.9-0.1,1.3-0.2l0.1,1.4
					c-0.4,0-0.8,0.1-1.3,0.2c0,0.1,0,0.2,0,0.4c-0.1,0-0.2,0-0.3,0c1.9-0.2,3.7-0.4,5.6-0.4c-0.1,0-0.2,0-0.3,0c0-0.1,0-0.2,0-0.4
					c-0.9,0-1.8,0.1-2.7,0.2l-0.1-1.4c0.9-0.1,1.8-0.1,2.8-0.2c0-0.4,0-0.8-0.1-1.2c-0.1,0-0.2,0-0.3,0L59.8,14c0.1,0,0.2,0,0.3,0
					c0-0.4,0-0.8-0.1-1.1c-1,0-1.9,0.1-2.9,0.2L57,11.6c1-0.1,2-0.1,3-0.2c0-0.4,0-0.8-0.1-1.2c-0.1,0-0.2,0-0.3,0l-0.1-1.4
					c0.1,0,0.2,0,0.3,0c0-0.3,0-0.5,0-0.8c-0.2,0-0.5,0-0.7,0l-0.4,0v0c-1.5,0.1-3.1,0.2-4.6,0.4c0.1,1.1,0.3,2.3,0.4,3.4
					C54.9,11.8,55.4,11.7,55.9,11.7z M58.7,14.1l0.1,1.4c-1.2,0.1-2.4,0.2-3.6,0.3L55,14.4C56.2,14.3,57.5,14.2,58.7,14.1z
					 M58.4,8.9l0.1,1.4c-1.3,0.1-2.6,0.2-3.9,0.3l-0.2-1.4C55.7,9.1,57.1,9,58.4,8.9z"/>
				<path class="st1" d="M84,11l-0.3,1.4c-0.5-0.1-1.1-0.2-1.6-0.3c-0.3,1.2-0.5,2.5-0.8,3.7c0.5,0.1,1,0.2,1.5,0.3l-0.3,1.4
					c-0.5-0.1-1-0.2-1.5-0.3c-0.2,1-0.4,1.9-0.6,2.9c-0.1,0-0.2,0-0.3,0c1.8,0.4,3.7,0.8,5.5,1.4c-0.1,0-0.2-0.1-0.3-0.1
					c0-0.1,0.1-0.2,0.1-0.4c-0.1,0-0.3-0.1-0.4-0.1l0.4-1.4c0.1,0,0.3,0.1,0.4,0.1v0c0.1-0.4,0.2-0.7,0.3-1.1
					c-0.9-0.2-1.7-0.5-2.6-0.7l0.3-1.4c0.9,0.2,1.8,0.5,2.6,0.7c0.1-0.4,0.2-0.7,0.3-1.1c-0.2,0-0.3-0.1-0.5-0.1l0.4-1.4
					c0.2,0,0.3,0.1,0.5,0.1v0c0.1-0.4,0.2-0.7,0.3-1.1c-0.9-0.3-1.8-0.5-2.8-0.8l0.3-1.4c0.9,0.2,1.9,0.5,2.8,0.8v0
					c0.1-0.2,0.1-0.5,0.2-0.7c-1.1-0.3-2.1-0.6-3.2-0.9l0,0c0,0,0,0,0,0l-0.4-0.1l0,0c-0.6-0.2-1.3-0.3-2-0.4
					c-0.1,0.2-0.1,0.5-0.2,0.7C82.9,10.8,83.4,10.9,84,11z M84.2,19.2l-0.4,1.4c-1.1-0.3-2.3-0.6-3.4-0.8l0.3-1.4
					C81.9,18.6,83.1,18.9,84.2,19.2z M85.6,14.2l-0.4,1.4c-1.2-0.3-2.5-0.6-3.7-0.9l0.3-1.4C83.1,13.5,84.4,13.8,85.6,14.2z"/>
				<path class="st1" d="M88.9,15.1c0.2-0.4,0.6-0.7,1.1-0.9c0,0,0,0,0,0C89.5,14.4,89.1,14.7,88.9,15.1z"/>
				<path class="st1" d="M44.3,25.6c-1.2,0.3-2.4,0.7-3.6,1.1c7.8,2.1,15.6,3.2,23.4,3.2c7.7,0,15.5-1,23.3-3.1l0-0.1
					c-1.2-0.4-2.5-0.8-3.7-1.2C70.5,28.6,57.5,28.6,44.3,25.6z"/>
				<path class="st1" d="M88.5,26.6C88.1,26.7,88.9,26.5,88.5,26.6L88.5,26.6z"/>
				<g>
					<path class="st3" d="M69.4,15.6c1.2,0.1,2.4,0.2,3.6,0.3l0.2-1.4c-1.2-0.1-2.5-0.3-3.7-0.3L69.4,15.6z"/>
					<path class="st3" d="M73.8,9.3c-1.3-0.2-2.7-0.3-4-0.4l-0.1,1.4c1.3,0.1,2.6,0.2,3.9,0.4L73.8,9.3z"/>
					<path class="st3" d="M52.9,12.4c-0.1-1.1-1.4-1.9-2.7-1.7c-1.4,0.2-2.3,1.3-2.1,2.5c0.4,1.9,0.7,3.9,1.1,5.8
						c1.5-0.3,3-0.5,4.5-0.7C53.4,16.4,53.1,14.4,52.9,12.4z"/>
					<path class="st3" d="M45.5,22.1c-0.5,0.1-0.8,0.6-0.7,1c0.1,0.4,0.6,0.7,1.1,0.6c0.5-0.1,0.8-0.6,0.7-1
						C46.4,22.2,46,22,45.5,22.1z"/>
					<path class="st3" d="M68.1,12.9c0,0.4,0,0.8-0.1,1.1C68.1,13.7,68.1,13.3,68.1,12.9c0.9,0,1.7,0.1,2.6,0.2l0.1-1.4
						c-0.9-0.1-1.8-0.1-2.7-0.2c0-0.4,0-0.8,0.1-1.2c0,0.4,0,0.8-0.1,1.2C68.1,11.9,68.1,12.4,68.1,12.9z"/>
					<path class="st3" d="M71.9,11.7l-0.1,1.4c0.4,0,1.1,0.1,1.7,0.2c0,0,0,0,0,0v0c0.1-0.5,0.1-1,0.2-1.4c0.1-1.1,0.3-2.3,0.4-3.4
						c-0.1,1.1-0.3,2.3-0.4,3.4C73.1,11.8,72.5,11.8,71.9,11.7z"/>
					<path class="st3" d="M68.4,14c-0.1,0-0.2,0-0.3,0c0,0.5,0,1-0.1,1.4c0.1,0,0.2,0,0.3,0L68.4,14z"/>
					<path class="st3" d="M71.3,18.3c0.5,0.1,1,0.1,1.6,0.2c0.1-0.5,0.1-1,0.2-1.4c-0.5-0.1-1.1-0.1-1.6-0.2L71.3,18.3z"/>
					<path class="st3" d="M67.8,18.5c0-0.1,0-0.2,0-0.4c0.8,0,1.6,0.1,2.4,0.1l0.1-1.4c-0.8-0.1-1.6-0.1-2.5-0.1
						c0-0.4,0-0.8,0.1-1.2c0,0.4,0,0.8-0.1,1.2c0,0.5,0,1-0.1,1.4C67.8,18.2,67.8,18.3,67.8,18.5c-0.1,0-0.2,0-0.3,0c0,0,0,0,0,0
						c1.9,0.1,3.7,0.2,5.6,0.5c-0.1,0-0.2,0-0.3,0v0C72.9,18.9,67.7,18.5,67.8,18.5z"/>
					<path class="st3" d="M78,10.8c-1.4-0.2-2.6,0.5-2.7,1.7c-0.3,2-0.5,3.9-0.8,5.9c1.5,0.2,3,0.5,4.5,0.7c0.4-1.9,0.8-3.9,1.1-5.8
						C80.3,12.1,79.4,11,78,10.8z"/>
					<path class="st3" d="M70,20c-0.5,0-0.9,0.3-0.9,0.8c0,0.5,0.3,0.9,0.8,0.9c0.5,0,0.9-0.3,0.9-0.8C70.8,20.5,70.5,20.1,70,20z"
						/>
					<path class="st3" d="M50.1,21.9c0.7,0.2,1.3,0.4,2,0.6c0.6-0.4,1.1-0.8,1.7-1.2c-0.7-0.2-1.3-0.4-2-0.6
						C51.2,21.1,50.6,21.5,50.1,21.9z"/>
					<path class="st3" d="M82.6,22.1c-0.5-0.1-1,0.2-1.1,0.6c-0.1,0.5,0.2,0.9,0.7,1c0.5,0.1,0.9-0.1,1.1-0.6S83,22.3,82.6,22.1z"/>
					<path class="st3" d="M74.4,21.4c0.6,0.4,1.1,0.8,1.7,1.2c0.7-0.2,1.3-0.4,2-0.5c-0.6-0.4-1.1-0.8-1.7-1.2
						C75.7,21,75,21.2,74.4,21.4z"/>
					<path class="st3" d="M64.1,9.6c-1.4,0-2.5,1-2.4,2.1c0.1,2,0.1,4,0.2,5.9c1.5,0,3,0,4.5,0c0.1-2,0.1-4,0.2-5.9
						C66.5,10.6,65.5,9.6,64.1,9.6z"/>
					<path class="st3" d="M57.9,20c-0.5,0-0.9,0.4-0.8,0.9c0,0.5,0.5,0.8,0.9,0.8c0.5,0,0.8-0.4,0.8-0.9C58.9,20.3,58.4,20,57.9,20z
						"/>
					<path class="st3" d="M62.2,20.7c0.6,0.3,1.2,0.6,1.9,0.9c0.6-0.3,1.2-0.6,1.9-0.9c-0.6-0.3-1.2-0.6-1.9-0.9
						C63.4,20.1,62.8,20.4,62.2,20.7z"/>
					<path class="st1" d="M70.8,11.6L70.7,13c-0.9-0.1-1.7-0.1-2.6-0.2c0,0.4,0,0.8-0.1,1.1c0.1,0,0.2,0,0.3,0l-0.1,1.4
						c-0.1,0-0.2,0-0.3,0c0,0.4,0,0.8-0.1,1.2c0.8,0,1.7,0.1,2.5,0.1l-0.1,1.4c-0.8-0.1-1.6-0.1-2.4-0.1c0,0.1,0,0.2,0,0.4
						c-0.1,0,5.1,0.4,5,0.4v0c0-0.1,0-0.2,0-0.4c-0.5-0.1-1-0.1-1.6-0.2l0.1-1.4c0.5,0.1,1.1,0.1,1.6,0.2v0c0.1-1.2,0.3-2.5,0.4-3.7
						c-0.6-0.1-1.3-0.2-1.7-0.2l0.1-1.4c0.6,0.1,1.2,0.1,1.7,0.2c0.1-1.1,0.3-2.3,0.4-3.4c-1.5-0.2-3.1-0.3-4.6-0.4h0l0,0l-0.4,0
						c0,0,0,0,0,0l0,0v0c-0.2,0-0.5,0-0.7,0c0,0.3,0,0.5,0,0.8c0.1,0,0.2,0,0.4,0l-0.1,1.4c-0.1,0-0.2,0-0.4,0c0,0.4,0,0.8-0.1,1.2
						C69.1,11.5,69.9,11.5,70.8,11.6z M73.2,14.4L73,15.9c-1.2-0.1-2.4-0.2-3.6-0.3l0.1-1.4C70.7,14.2,71.9,14.3,73.2,14.4z
						 M69.8,8.9c1.3,0.1,2.7,0.2,4,0.4l-0.2,1.4c-1.3-0.1-2.6-0.3-3.9-0.4L69.8,8.9z"/>
					<path class="st0" d="M92.6,9.2c-0.1,0.3-0.2,0.6-0.3,1c-0.2-0.1-0.5-0.2-0.7-0.2c0.1-0.3,0.2-0.6,0.3-1c-0.5-0.2-1-0.3-1.4-0.5
						c-0.1,0.3-0.2,0.6-0.3,1c-0.2-0.1-0.5-0.2-0.7-0.2c0.1-0.3,0.2-0.7,0.3-1c-0.5-0.1-1-0.3-1.4-0.4c-0.2,0.8-0.5,1.7-0.7,2.5
						c0,0,0,0,0,0c0.3,0.1,0.5,0.1,0.8,0.2c-0.1,0.3-0.1,0.5-0.2,0.8v0c-0.1,0.2-0.1,0.5-0.2,0.7v0c-0.1,0.5-0.3,0.9-0.4,1.4
						c-0.1,0.4-0.2,0.7-0.3,1.1v0c-0.1,0.5-0.3,0.9-0.4,1.4c-0.1,0.4-0.2,0.7-0.3,1.1c-0.1,0.5-0.3,0.9-0.4,1.4
						c-0.1,0.4-0.2,0.7-0.3,1.1v0c-0.1,0.5-0.3,0.9-0.4,1.4v0c0,0.1-0.1,0.2-0.1,0.4c0.1,0,0.2,0.1,0.3,0.1c0,0,0,0,0,0
						c-1.8-0.5-3.6-1-5.5-1.4c0,0,0,0,0,0c0.1,0,0.2,0,0.3,0.1c0.2-1,0.4-1.9,0.6-2.9c0.1-0.5,0.2-0.9,0.3-1.4
						c0.3-1.2,0.5-2.5,0.8-3.7c0.1-0.5,0.2-0.9,0.3-1.4c0.1-0.2,0.1-0.5,0.2-0.7c0.1-0.3,0.1-0.5,0.2-0.8c0.3,0.1,0.6,0.1,0.8,0.2
						c0.1-0.5,0.2-1,0.3-1.5c0.1-0.3,0.2-0.7,0.2-1c-0.5-0.1-1-0.2-1.5-0.3c-0.1,0.3-0.1,0.7-0.2,1c-0.3-0.1-0.5-0.1-0.8-0.1
						c0.1-0.3,0.1-0.7,0.2-1c-0.5-0.1-1-0.2-1.5-0.3c-0.1,0.3-0.1,0.7-0.2,1c-0.3,0-0.5-0.1-0.8-0.1c0.1-0.3,0.1-0.7,0.2-1
						c-0.5-0.1-1-0.2-1.5-0.2c-0.1,0.3-0.1,0.7-0.2,1c-0.3,0-0.5-0.1-0.8-0.1c0.1-0.3,0.1-0.7,0.2-1c-0.5-0.1-1-0.1-1.5-0.2
						c0,0.3-0.1,0.7-0.1,1c-0.3,0-0.5-0.1-0.8-0.1c0-0.3,0.1-0.7,0.1-1c-0.5-0.1-1-0.1-1.5-0.2c-0.1,0.9-0.2,1.7-0.3,2.6
						c0,0,0,0,0,0c0.3,0,0.5,0.1,0.8,0.1c0,0.3-0.1,0.5-0.1,0.8c-0.1,1.1-0.3,2.3-0.4,3.4c-0.1,0.5-0.1,1-0.2,1.4v0c0,0,0,0,0,0
						c-0.1,1.2-0.3,2.5-0.4,3.7v0c-0.1,0.5-0.1,1-0.2,1.4c0,0.1,0,0.2,0,0.4c0.1,0,0.2,0,0.3,0c-1.9-0.2-3.7-0.4-5.6-0.5
						c0,0,0,0,0,0c0.1,0,0.2,0,0.3,0c0-0.1,0-0.2,0-0.4c0-0.5,0-1,0.1-1.4c0-0.4,0-0.8,0.1-1.2c0-0.5,0-1,0.1-1.4
						c0-0.4,0-0.8,0.1-1.1c0-0.5,0-1,0.1-1.4c0-0.4,0-0.8,0.1-1.2c0-0.5,0-1,0.1-1.4c0-0.3,0-0.5,0-0.8c0-0.3,0-0.5,0-0.8
						c0.3,0,0.6,0,0.8,0c0-0.5,0.1-1,0.1-1.6c0-0.3,0-0.7,0.1-1c-0.5,0-1-0.1-1.5-0.1c0,0.3,0,0.7,0,1c-0.3,0-0.5,0-0.8,0
						c0-0.4,0-0.7,0-1.1c-0.5,0-1,0-1.5,0c0,0.3,0,0.7,0,1c-0.3,0-0.5,0-0.8,0c0-0.3,0-0.7,0-1c-0.5,0-1,0-1.5,0c0,0.3,0,0.7,0,1
						c-0.3,0-0.5,0-0.8,0c0-0.3,0-0.7,0-1c-0.5,0-1,0-1.5,0c0,0.4,0,0.7,0,1.1c-0.3,0-0.5,0-0.8,0c0-0.3,0-0.7,0-1
						c-0.5,0-1,0-1.5,0.1c0,0.9,0.1,1.7,0.1,2.6c0,0,0,0,0,0c0.3,0,0.5,0,0.8,0c0,0.3,0,0.5,0,0.8c0,0.3,0,0.5,0,0.8
						c0,0.5,0,1,0.1,1.4c0,0.4,0,0.8,0.1,1.2c0,0.5,0,1,0.1,1.4c0,0.4,0,0.8,0.1,1.1c0,0.5,0,1,0.1,1.4c0,0.4,0,0.8,0.1,1.2
						c0,0.5,0,1,0.1,1.4c0,0.1,0,0.2,0,0.4c0.1,0,0.2,0,0.3,0c0,0,0,0,0,0c-1.9,0.1-3.7,0.2-5.6,0.4c0,0,0,0,0,0c0.1,0,0.2,0,0.3,0
						c0-0.1,0-0.2,0-0.4c-0.1-0.5-0.1-1-0.2-1.4c-0.1-1.2-0.3-2.5-0.4-3.7c-0.1-0.5-0.1-1-0.2-1.4c-0.1-1.1-0.3-2.3-0.4-3.4v0
						C54.1,8.2,54,8,54,7.7c0.3,0,0.6-0.1,0.8-0.1c-0.1-0.9-0.2-1.7-0.3-2.6c-0.5,0.1-1,0.1-1.5,0.2c0,0.3,0.1,0.7,0.1,1
						c-0.3,0-0.5,0.1-0.8,0.1c0-0.3-0.1-0.7-0.1-1c-0.5,0.1-1,0.1-1.5,0.2c0.1,0.3,0.1,0.7,0.2,1c-0.3,0-0.5,0.1-0.8,0.1
						c-0.1-0.3-0.1-0.7-0.2-1c-0.5,0.1-1,0.2-1.5,0.2c0.1,0.3,0.1,0.7,0.2,1C48.5,6.9,48.3,7,48,7c-0.1-0.3-0.1-0.7-0.2-1
						c-0.5,0.1-1,0.2-1.5,0.3c0.1,0.3,0.1,0.7,0.2,1c-0.3,0-0.5,0.1-0.8,0.1c-0.1-0.3-0.1-0.7-0.2-1c-0.5,0.1-1,0.2-1.5,0.3
						c0.2,0.8,0.4,1.7,0.6,2.5c0,0,0,0,0,0c0.3-0.1,0.5-0.1,0.8-0.2c0.1,0.3,0.1,0.5,0.2,0.8c0.1,0.2,0.1,0.5,0.2,0.7
						c0.1,0.5,0.2,0.9,0.3,1.4c0.3,1.2,0.5,2.5,0.8,3.7c0.1,0.5,0.2,0.9,0.3,1.4c0.2,1,0.4,1.9,0.6,2.9c0.1,0,0.2,0,0.3-0.1
						c0,0,0,0,0,0c0,0,0,0,0,0c-1.8,0.4-3.7,0.8-5.5,1.4c0.1,0,0.2-0.1,0.3-0.1c0-0.1-0.1-0.2-0.1-0.4c-0.1-0.5-0.3-0.9-0.4-1.4
						c-0.1-0.2-0.1-0.5-0.2-0.7c0-0.1-0.1-0.3-0.1-0.4v0c-0.1-0.5-0.3-0.9-0.4-1.4c-0.1-0.4-0.2-0.8-0.3-1.1c0-0.1-0.1-0.3-0.1-0.4
						c-0.1-0.3-0.2-0.7-0.3-1c0,0,0,0,0,0c-0.1-0.2-0.1-0.4-0.2-0.6c0-0.1-0.1-0.3-0.1-0.4c-0.1-0.5-0.3-0.9-0.4-1.4
						c-0.1-0.2-0.1-0.5-0.2-0.7c-0.1-0.3-0.1-0.5-0.2-0.8c0.3-0.1,0.5-0.2,0.8-0.2c-0.1-0.5-0.3-1-0.4-1.5c-0.1-0.3-0.2-0.7-0.3-1
						c-0.5,0.1-1,0.3-1.4,0.4c0.1,0.3,0.2,0.7,0.3,1c-0.2,0.1-0.5,0.1-0.7,0.2c-0.1-0.3-0.2-0.6-0.3-1c-0.5,0.1-1,0.3-1.4,0.4
						c0.1,0.3,0.2,0.6,0.3,1c-0.2,0.1-0.5,0.2-0.7,0.2c-0.1-0.3-0.2-0.6-0.3-1c-0.2,0.1-0.5,0.2-0.7,0.2c0.1,0.3,0.2,0.6,0.3,1
						c0.2,0.5,0.3,1,0.5,1.5c0.1,0.2,0.2,0.5,0.2,0.7c0.2,0.5,0.4,1.1,0.5,1.6c1.3-0.4,2.7,0.1,3,1.2c0.6,1.9,1.2,3.8,1.7,5.7
						c-0.7,0.2-1.5,0.5-2.2,0.7c0.1,0.2,0.2,0.5,0.2,0.7c0,0,0,0,0,0c0,0.1,0.1,0.2,0.1,0.4c0.1,0.3,0.2,0.6,0.3,1
						c0.7,0.1,1.4,0.2,2.1,0.3c-0.3,0.3-0.6,0.5-0.9,0.8c-0.2,0.2-0.4,0.4-0.6,0.6c0.1,0.4,0.3,0.9,0.4,1.3c1.2-0.4,2.4-0.8,3.6-1.1
						C57.2,22,70.8,22,83.7,25.7c1.3,0.4,2.5,0.7,3.7,1.2c0.1-0.4,0.3-0.9,0.4-1.3c-0.2-0.2-0.5-0.4-0.7-0.7
						c-0.3-0.3-0.5-0.5-0.8-0.8c0.7-0.1,1.4-0.2,2.1-0.3c0.1-0.3,0.2-0.6,0.3-1c0-0.1,0.1-0.2,0.1-0.3c0,0,0,0-0.1,0c0,0,0,0,0.1,0
						c0.1-0.2,0.2-0.5,0.2-0.7c-0.7-0.2-1.4-0.5-2.2-0.7c0.6-1.9,1.2-3.8,1.8-5.7c0-0.1,0.1-0.2,0.2-0.3c0.2-0.4,0.6-0.7,1.1-0.9
						c0.3-0.1,0.6-0.1,0.9-0.1c0.3,0,0.5,0,0.8,0.1c0,0,0,0,0.1,0c0.3-0.8,0.5-1.6,0.8-2.3c0.2-0.5,0.3-1,0.5-1.5
						c0.1-0.3,0.2-0.6,0.3-1C93.1,9.4,92.8,9.3,92.6,9.2z M45.9,23.7c-0.5,0.1-0.9-0.1-1.1-0.6c-0.1-0.4,0.2-0.9,0.7-1
						c0.5-0.1,1,0.2,1.1,0.6C46.7,23.1,46.4,23.6,45.9,23.7z M48.1,13.2c-0.2-1.1,0.7-2.2,2.1-2.5c1.4-0.2,2.6,0.6,2.7,1.7
						c0.3,2,0.5,3.9,0.8,5.9c-1.5,0.2-3,0.4-4.5,0.7C48.8,17.1,48.4,15.2,48.1,13.2z M52,22.5c-0.7-0.2-1.3-0.4-2-0.6
						c0.6-0.4,1.1-0.8,1.7-1.2c0.7,0.2,1.3,0.4,2,0.6C53.2,21.7,52.6,22.1,52,22.5z M58.1,21.7c-0.5,0-0.9-0.3-0.9-0.8
						c0-0.5,0.3-0.9,0.8-0.9c0.5,0,0.9,0.3,0.9,0.8C58.9,21.3,58.5,21.7,58.1,21.7z M64.1,21.5c-0.6-0.3-1.2-0.6-1.9-0.9
						c0.6-0.3,1.2-0.6,1.9-0.9c0.6,0.3,1.2,0.6,1.9,0.9C65.3,20.9,64.7,21.2,64.1,21.5z M66.3,17.7c-1.5,0-3,0-4.5,0
						c-0.1-2-0.1-4-0.2-5.9c0-1.1,1.1-2.1,2.4-2.1c1.4,0,2.5,1,2.4,2.1C66.4,13.7,66.4,15.7,66.3,17.7z M69.9,21.7
						c-0.5,0-0.8-0.4-0.8-0.9c0-0.5,0.5-0.8,0.9-0.8c0.5,0,0.9,0.5,0.8,0.9C70.8,21.4,70.3,21.8,69.9,21.7z M76.1,22.5
						c-0.6-0.4-1.1-0.8-1.7-1.2c0.7-0.2,1.3-0.4,2-0.6c0.6,0.4,1.1,0.8,1.7,1.2C77.4,22.2,76.7,22.3,76.1,22.5z M74.5,18.4
						c0.3-2,0.5-3.9,0.8-5.9c0.1-1.1,1.4-1.9,2.7-1.7c1.4,0.2,2.3,1.4,2.1,2.5c-0.4,1.9-0.8,3.9-1.1,5.8
						C77.5,18.8,76,18.6,74.5,18.4z M83.2,23.2c-0.1,0.4-0.6,0.7-1.1,0.6c-0.5-0.1-0.8-0.6-0.7-1c0.1-0.5,0.6-0.7,1.1-0.6
						S83.3,22.7,83.2,23.2z"/>
				</g>
			</g>
		</g>
	</g>
</g>
</svg>
