<!--?xml version="1.0" encoding="UTF-8"?-->
<svg preserveAspectRatio="xMidYMid meet" data-bbox="21.117 25.397 158 122.126" xmlns="http://www.w3.org/2000/svg" viewBox="21.117 25.397 158 122.126" height="200" width="200" data-type="color" role="presentation" aria-hidden="true" aria-label=""><defs><style>#comp-m48c1ssj svg [data-color="1"] {fill: #A48D63;}
#comp-m48c1ssj svg [data-color="2"] {fill: #FFFFFF;}</style></defs>
    <g>
        <path fill="#F98971" d="M111.31 44.7c-2.536-10.302-11.84-18.016-11.84-18.016s-9.25 7.674-11.826 17.937c-7.845-5.742-17.832-6.084-17.832-6.084s.408 12.575 8.424 20.59c4.809 4.81 11.234 6.86 15.623 7.754 2.891 3.68 5.611 5.94 5.611 5.94s2.694-2.248 5.585-5.914c4.389-.867 10.907-2.93 15.768-7.78 8.016-8.015 8.423-20.59 8.423-20.59s-10.065.342-17.936 6.163Z" data-color="1"></path>
        <path fill="#F98971" d="M99.461 73.806a5.748 5.748 0 0 0-5.742 5.742 5.748 5.748 0 0 0 5.742 5.742 5.748 5.748 0 0 0 5.742-5.742 5.748 5.748 0 0 0-5.742-5.742Z" data-color="1"></path>
        <path fill="#7B0001" d="M179.117 145.552h-158v1.971h158v-1.971Z" data-color="2"></path>
        <path fill="#7B0001" d="M99.46 86.276c3.377 0 6.163-2.51 6.636-5.769h71.392v-1.97h-71.405a6.729 6.729 0 0 0-5.283-5.586c.986-.88 2.839-2.667 4.823-5.15 4.507-.933 10.972-3.075 15.887-7.99 8.186-8.186 8.699-20.722 8.712-21.248l.039-1.051-1.051.04c-.447.013-9.553.394-17.319 5.531-2.983-9.75-11.366-16.793-11.8-17.16l-.63-.526-.632.525c-.433.355-8.79 7.372-11.786 17.096-7.727-5.072-16.768-5.453-17.214-5.467l-1.052-.04.04 1.052c.013.526.512 13.062 8.712 21.248 4.862 4.862 11.248 7.004 15.742 7.95a45.19 45.19 0 0 0 4.849 5.177c-2.746.552-4.862 2.8-5.296 5.585H21.117v1.971h71.707c.473 3.246 3.246 5.769 6.636 5.769v.013Zm20.67-27.845c-6.281 6.282-15.637 7.727-18.817 8.042.315-3.18 1.761-12.536 8.042-18.817 6.281-6.28 15.637-7.726 18.817-8.042-.315 3.18-1.761 12.536-8.042 18.817Zm-16.715 9.777a8.18 8.18 0 0 1-.499.066c.158-.027.329-.053.499-.066ZM88.764 44.24c2.26-8.003 8.672-14.376 10.71-16.229 2.049 1.866 8.488 8.266 10.722 16.308-.762.604-1.524 1.235-2.234 1.944-5.939 5.94-7.832 14.153-8.436 18.423-.605-4.27-2.484-12.47-8.436-18.423a23.866 23.866 0 0 0-2.34-2.023h.014ZM70.88 39.614c3.18.316 12.536 1.761 18.817 8.042 6.281 6.281 7.726 15.637 8.055 18.817-3.18-.315-12.536-1.76-18.817-8.042-6.281-6.28-7.727-15.637-8.055-18.817Zm24.06 28.489h-.026.026Zm1.406.21c1.406.184 2.313.223 2.444.223h.42v.04h.618v-.026l.421-.014c.131 0 .985-.04 2.312-.21a41.032 41.032 0 0 1-3.114 3.18 46.882 46.882 0 0 1-3.127-3.193h.026Zm3.114 6.478a4.756 4.756 0 0 1 4.757 4.757 4.756 4.756 0 0 1-4.757 4.757 4.756 4.756 0 0 1-4.757-4.757 4.756 4.756 0 0 1 4.757-4.757Z" data-color="2"></path>
    </g>
</svg>