<?xml version="1.0" encoding="utf-8"?>
<!-- Generator: Adobe Illustrator 23.0.0, SVG Export Plug-In . SVG Version: 6.00 Build 0)  -->
<svg version="1.1" id="Calque_1" xmlns="http://www.w3.org/2000/svg" xmlns:xlink="http://www.w3.org/1999/xlink" x="0px" y="0px"
	 viewBox="0 0 610.2 146.2" style="enable-background:new 0 0 610.2 146.2;" xml:space="preserve">
<style type="text/css">
	.st0{fill:#FFFFFF;}
	.st1{fill:none;stroke:#231F20;stroke-width:0.4;stroke-miterlimit:10;}
</style>
<rect x="-27.4" y="-124.7" class="st0" width="949" height="452"/>
<path class="st1" d="M271.8,96.6c-5.2-4.7-8.3-16-9-19.1c0,0,0-0.1,0-0.1c-1.5-0.5-2.8-0.4-3.7-0.1c0,0,0,0.1,0,0.1l0,0
	c0,0,0,0.1,0,0.1c-0.8,3.1-3.8,14.4-9,19.1c-6.9,6.2-9.6,16.6-9.7,17l-0.1,25.9h3.7v-25.3c0.4-1.4,2.9-10,8.5-15
	c4-3.6,6.8-10.1,8.4-15c1.7,5,4.4,11.4,8.4,15c5.6,5,8.2,13.6,8.5,15v25.3h3.7v-25.5l-0.1-0.4C281.4,113.2,278.7,102.9,271.8,96.6z"
	/>
<path class="st1" d="M414.1,122.2c-0.1-0.4-0.7-3.8-4-5.6c-2-1.1-2.2-4.3-2.2-4.3l0-0.4l-0.3-0.4c-0.1-0.2-0.6-0.7-1.4-0.7
	c-0.6,0-1,0.2-1.4,0.6l-0.3,0.4l0,0.5c0,0-0.2,3.2-2.2,4.3c-3.4,1.9-4,5.5-4,5.6l0,17.2h2.9v-16.8c0.1-0.4,0.7-2.5,2.5-3.5
	c1-0.5,1.8-1.4,2.4-2.4c0.6,1.1,1.4,1.9,2.4,2.4c1.9,1,2.4,3.1,2.5,3.5v16.8h2.9l0-17L414.1,122.2z"/>
<path class="st1" d="M398.7,83.3V73.2c0-0.8,0.7-1.4,1.5-1.4h5.6c0.8,0,1.5,0.6,1.5,1.4v10.1c0,0.8-0.7,1.4-1.5,1.4h-5.6
	C399.4,84.8,398.7,84.1,398.7,83.3z M405.7,87.6c2.4,0,4.4-1.9,4.4-4.3V73.2c0-2.4-2-4.3-4.4-4.3h-5.6c-2.4,0-4.4,1.9-4.4,4.3v10.1
	c0,2.4,2,4.3,4.4,4.3H405.7z"/>
<path class="st1" d="M398.7,49.1c0-0.8,0.7-1.4,1.5-1.4h5.6c0.8,0,1.5,0.6,1.5,1.4v10.1c0,0.8-0.7,1.4-1.5,1.4h-5.6
	c-0.8,0-1.5-0.6-1.5-1.4V49.1z M400.2,63.5h5.6c2.4,0,4.4-1.9,4.4-4.3V49.1c0-2.4-2-4.3-4.4-4.3h-5.6c-2.4,0-4.4,1.9-4.4,4.3v10.1
	C395.8,61.5,397.8,63.5,400.2,63.5z"/>
<path class="st1" d="M389.8,83.3c0,0.8-0.7,1.4-1.5,1.4h-5.6c-0.8,0-1.5-0.6-1.5-1.4V73.2c0-0.8,0.7-1.4,1.5-1.4h5.6
	c0.8,0,1.5,0.6,1.5,1.4V83.3z M388.4,68.9h-5.6c-2.4,0-4.4,1.9-4.4,4.3v10.1c0,2.4,2,4.3,4.4,4.3h5.6c2.4,0,4.4-1.9,4.4-4.3V73.2
	C392.8,70.9,390.8,68.9,388.4,68.9z"/>
<path class="st1" d="M389.8,120.6c0,0.8-0.7,1.4-1.5,1.4h-5.6c-0.8,0-1.5-0.6-1.5-1.4V99.5c0-0.8,0.7-1.4,1.5-1.4h5.6
	c0.8,0,1.5,0.6,1.5,1.4V120.6z M388.4,95.2h-5.6c-2.4,0-4.4,1.9-4.4,4.3v21.1c0,2.4,2,4.3,4.4,4.3h5.6c2.4,0,4.4-1.9,4.4-4.3V99.5
	C392.8,97.2,390.8,95.2,388.4,95.2z"/>
<path class="st1" d="M389.8,59.2c0,0.8-0.7,1.4-1.5,1.4h-5.6c-0.8,0-1.5-0.6-1.5-1.4V49.1c0-0.8,0.7-1.4,1.5-1.4h5.6
	c0.8,0,1.5,0.6,1.5,1.4V59.2z M388.4,44.8h-5.6c-2.4,0-4.4,1.9-4.4,4.3v10.1c0,2.4,2,4.3,4.4,4.3h5.6c2.4,0,4.4-1.9,4.4-4.3V49.1
	C392.8,46.7,390.8,44.8,388.4,44.8z"/>
<path class="st1" d="M534.8,137.9h-47.9v-5.1l47.9,3.8V137.9z M483.2,137.9H469c0.8-1.7,1.4-3.2,1.6-3.9l12.6-1.2V137.9z
	 M459.9,137.9V135l9.3-0.9c-0.3,0.9-0.9,2.3-1.6,3.7H459.9z M400.3,35.8l0-6.8l0-0.2c0-0.1-0.4-2.3-2.5-3.5
	c-0.6-0.3-0.8-1.4-0.8-1.8l0-0.4l-0.3-0.4c-0.3-0.4-0.8-0.6-1.3-0.6h0l5.1-7.5l16.2,21.2H400.3z M397.3,35.8h-4v-6.6
	c0.1-0.3,0.3-1,1-1.4c0.4-0.2,0.7-0.5,1-0.8c0.3,0.3,0.6,0.6,1,0.8c0.7,0.4,1,1.1,1,1.4V35.8z M392.9,25.3c-2,1.1-2.5,3.3-2.5,3.5
	l0,7h-16.3l16.3-21.2l4.9,7.5c-0.5,0-0.9,0.2-1.2,0.6l-0.3,0.4l0,0.5C393.7,23.9,393.5,24.9,392.9,25.3z M395.4,8l3.2,4.1l-3.2,4.7
	l-3.1-4.7L395.4,8z M132,111.9c0.3-0.3,0.5-0.7,0.5-1.1c0-0.4-0.2-0.8-0.5-1.1l-5.8-5.6c-0.6-0.6-1.5-0.6-2.2-0.1l-2.7,2.2v-8.9
	c0-0.9-0.7-1.6-1.7-1.6h-8.2c-0.9,0-1.6,0.7-1.6,1.6v5.5l-3.7-3.6c-0.6-0.6-1.7-0.6-2.3,0l-5.8,5.6c-0.6,0.6-0.6,1.7,0,2.3l7.7,7.5
	v4.3H93.5c-8,0-14.5-6.4-14.5-14.2c0-1.3,0.2-2.5,0.5-3.8c0.2-0.6,0-1.3-0.5-1.7c-4-3.2-6.3-7.9-6.3-13c0-9.3,7.7-16.8,17.2-16.8
	c0.2,0,0.5,0,0.7,0c0.8,0,1.5-0.5,1.7-1.2C95,58,104.3,50.9,115,50.9c10.7,0,20.1,7.1,22.8,17.2c0.2,0.7,0.9,1.2,1.7,1.2
	c0.2,0,0.5,0,0.7,0c9.5,0,17.2,7.5,17.2,16.8c0,5-2.3,9.8-6.3,13c-0.5,0.4-0.7,1.1-0.5,1.7c0.3,1.2,0.5,2.5,0.5,3.8
	c0,7.8-6.5,14.2-14.5,14.2H125L132,111.9z M668.5,137.9H537.2v-1.6h0v-0.6l-51.7-4.3l-28,2.8v3.8H451v0h-30.5V93.8l2.6-2.5V48.2
	l-4.5-4.4v-3.4l3.2-2.7L402.1,12l0.1-0.2l-0.5-0.3l-3.7-4.8c0-0.9-0.2-2.5-0.2-2.7l-0.1-1.3h-5.1v4l-23.7,31l3.2,2.7v3.4l-4.5,4.4
	v43.1l2.6,2.5v44.1h-44.9V86.6L314.1,68c-0.3,0-0.5,0-0.7,0l-5,13.2l-3.1-22.1c-1.7-0.4-2.7-0.2-3.3,0l-1.5,18h-2.8
	c0-0.3-0.1-0.7-0.2-1c-0.6-2-2.5-3.9-5.7-5.7c-1-1.9-5.3-9.7-13.6-13.1v-15c-0.3-0.1-0.6-0.2-0.9-0.3l-3.8,3.7l-2.4-7
	c-0.3,0-0.6,0-0.9,0.1l-2.3,7.1c-0.9-0.3-2.1-0.6-3.1-0.8v-4.2l-3.1-3.6v-6.9c-0.3-0.1-0.5-0.2-0.8-0.3c-0.9-0.2-1.8-0.2-2.4,0
	c-0.3,0.1-0.6,0.2-0.8,0.3v6.9l-3.1,3.6V45c-1,0.2-2.2,0.5-3.1,0.8l-2.4-7.2c-0.3,0-0.7,0-0.9,0.1l-2.3,7l-3.9-3.7
	c-0.3,0.1-0.6,0.2-0.8,0.4v14.9c-8.3,3.4-12.6,11.2-13.6,13.1c-3.2,1.8-5.1,3.8-5.7,5.7c-0.1,0.4-0.2,0.7-0.2,1H219l-1.4-17.4
	c-1.4-0.4-2.6-0.2-3.4,0l-3,21.5l-4.8-12.6c-0.5-0.1-1-0.1-1.4,0l-10.8,17.9v51.3h-68.9V122h11.2c9.8,0,17.8-7.8,17.8-17.4
	c0-0.9-0.1-1.9-0.2-2.8L154,101l0.6-0.6c3.9-3.8,6-8.8,6-14.2c0-10.4-8.3-19.2-18.9-20l-1.1-0.1l-0.4-1
	c-3.8-10.4-13.9-17.4-25.3-17.4s-21.5,7-25.3,17.4l-0.4,1l-1.1,0.1c-10.6,0.8-18.9,9.6-18.9,20c0,5.4,2.1,10.4,6,14.2L76,101
	l-0.1,0.8c-0.2,0.9-0.2,1.9-0.2,2.8c0,9.6,8,17.4,17.8,17.4h12.3v15.8H-16v3.6h125v-1.8v-1.8v-24.1c0-0.4-0.2-0.8-0.5-1.1l-7-6.8
	l3.4-3.4l5.3,5.2c0.5,0.5,1.2,0.6,1.8,0.3c0.6-0.2,1-0.8,1-1.5v-7.7h4.9v11.7c0,0.7,0.4,1.2,1,1.5c0.6,0.2,1.3,0.1,1.8-0.3l4.3-4.2
	l3.4,3.4l-5.9,5.8c-0.3,0.3-0.5,0.7-0.5,1.1v20.1v1.8v1.8h75.3v-3.6V87.3l7.8-12.9l5.4,14.3c0.9,0.1,1.9,0,2.8-0.4l2.1-14.8l0.5,6.4
	h10.5l-1.5-2.1c0,0-1.1-2.2,4.8-5.4l0.4-0.2l0.2-0.4c0-0.1,4.3-9.3,13-12.4l1-0.3V48.3l3,2.9l1.3-3.9l0.7,2.2l1.6-0.6
	c1.6-0.5,4.3-1.3,5.2-1.3h1.6v-5.8l1.9-2.2l1.9,2.2v5.8h1.6c0.8,0,3.3,0.7,5.2,1.3l1.6,0.6l0.7-2.2l1.3,3.9l3-2.9V59l1,0.3
	c8.6,3,12.9,12.3,13,12.4l0.2,0.4l0.4,0.2c4.7,2.5,5.1,4.6,4.7,5.4l-1.8,2.1h10.9l0.5-6.4l2,14.8c0.6,0.4,1.6,0.6,2.9,0.2l5.3-14.1
	l7.8,12.9v50.6H322v3.6h51.2v-2.1v-1.4V92.6l-2.6-2.5V49.4l4.5-4.4v-6l-0.5-0.4h41.4l-0.5,0.4v6l4.5,4.4v40.7l-2.6,2.5v46.7h0.2v2.1
	h44.5v0h206.3V137.9z"/>
<path class="st1" d="M460,97l9.8-6.3c0.4,0.8,0.8,1.9,0.9,3.4l-10.7,6.5V97z M513.5,62.7v5.6l-41.7,25.1c-0.2-1.4-0.6-2.5-1-3.3
	L513.5,62.7z M517.2,64.4l17.6,22.4v3.7l-17.6-21.4V64.4z M515,68.8l0.5,0.2l19.3,23.5h2.4v-6.5l-21.5-27.4l-57.6,36.8l-0.6,0.4v6.8
	h2.4L515,68.8z"/>
<path class="st1" d="M460,115.9l13.9-7.3c0.6,3.6,0.1,4.7,0.1,4.7l0.1,0l-14.2,6.7L460,115.9z M483.2,103.8v5.3l-7.8,3.7
	c0.1-0.9,0.1-2.3-0.3-4.7L483.2,103.8z M486.9,103.4l47.9,15.2v3.9L486.9,109V103.4z M484.9,109.7l49.9,14.1h2.4v-7l-52.3-16.6
	l-27.4,14.2v7l2.4-0.1L484.9,109.7z"/>
<path class="st1" d="M513.6,98.8l-13.3,4.6l-5.7-2.1l19.1-8.7V98.8z M517.3,92.8l18.1,15.8v4.6l-18.1-13.7V92.8z M500.3,104.6
	l15-5.1h0.1l21.2,16.1V108l-20.5-17.9l-24.7,11.2L500.3,104.6z"/>
<path class="st1" d="M486.9,117.7l48.5,10.4v4.9l-48.5-8.8V117.7z M483.2,123.7l-9.7,2.6c0.5-1.9,1.1-4.8,1.4-5.9l8.4-2.6V123.7z
	 M472.1,126.7l-12.7,3.4v-4.9l14.1-4.4C473.2,122.6,472.6,125.3,472.1,126.7z M458.2,124.3v7.3l14.8-3.8l0,0c0,0,0,0,0,0l11.3-2.9
	l52.3,9.5v-7.3l-51-11.3L458.2,124.3z"/>
<path class="st1" d="M513.5,82.3l-39.2,21c-0.1-2.3-0.7-3.8-1-4.5l40.2-22.3V82.3z M458.8,111.7v-4.7l13.5-7.5
	c0.3,0.7,0.8,2.3,0.9,4.5L458.8,111.7z M517.2,77.3l18.2,19.6v4.4l-18.2-17.6V77.3z M514.8,83.1l21.8,21.1v-7.8l-19.4-21v0h0
	l-1.3-1.4l-58,32.1l-0.3,0.2v7.5L514.8,83.1L514.8,83.1z"/>
</svg>
